<svg width="197" height="39" viewBox="0 0 197 39" fill="none" xmlns="http://www.w3.org/2000/svg">
<path d="M0.351562 25.6562L27.1875 28.1953L36.6797 4.23047L32.1875 31.7695L26.0742 34.4258L0.351562 25.6562ZM40.1172 23.9961L46.5625 19.4258V17.1797L42.168 16.3789L40.1172 23.9961ZM39.8828 24.8359L38.8477 28.6836L51.7578 35.2461L37.2852 33.0977L34.5312 29.3281L37.793 13.5078L50.0391 12.9023L50.332 22.4922L39.8828 24.8359ZM58.1055 22.0625L55.5078 38.0781L52.168 28.3125L53.1445 23.3711L42.5586 26.1445L53.6328 20.9688L56.8164 5.67578L80.625 0.851562L60.6445 9.09375L58.6719 18.625L69.1992 13.7031L65.1172 20.2266L58.1055 22.0625ZM73.9648 22.0625L71.3672 38.0781L68.0273 28.3125L69.0039 23.3711L58.418 26.1445L69.4922 20.9688L72.6758 5.67578L96.4844 0.851562L76.5039 9.09375L74.5312 18.625L85.0586 13.7031L80.9766 20.2266L73.9648 22.0625ZM102.852 10.6562L100.625 19.9531L119.688 12.1797L102.852 10.6562ZM100.488 20.5781L97.5781 32.7852L116.016 24.9336L100.488 20.5781ZM96.5039 33.2539L92.6562 33L98.3789 5.20703L129.59 8.82031V12.2773L110.098 19.3281L127.969 22.5898L126.426 26.5742L86.3281 37.5898L96.5039 33.2539ZM133.516 23.9961L139.961 19.4258V17.1797L135.566 16.3789L133.516 23.9961ZM133.281 24.8359L132.246 28.6836L145.156 35.2461L130.684 33.0977L127.93 29.3281L131.191 13.5078L143.438 12.9023L143.73 22.4922L133.281 24.8359ZM165.527 35.5586L145.625 32.5312L144.59 27.4336L154.004 16.9844L141.152 12.1992L158.457 13.7422L158.867 17.5898L149.492 29.0742L165.527 35.5586ZM162.871 26.9453L163.848 29.6797L167.734 27.707L169.98 17.0625L168.965 15.1484L165.566 16.6133L162.871 26.9453ZM158.262 29.543L161.68 13.7227L169.941 11.3594L174.121 14.4258L171.426 30.7539L162.637 33.918L158.262 29.543ZM196.465 10.2461L180.234 18.0977L187.852 24.6992L187.441 30.1094L170.137 35.5586L182.988 26.8672L175.332 19.7383L176.367 14.6406L196.465 10.2461Z" fill="#F20707"/>
</svg>
