<svg width="152" height="39" viewBox="0 0 152 39" fill="none" xmlns="http://www.w3.org/2000/svg">
<path d="M22.0117 10.0625L12.9102 13.0508L0.957031 9.18359L47.0898 1.82031L28.5156 7.93359L20.9961 36.7031L22.0117 10.0625ZM33.6328 9.10547L34.9219 2.66016L38.4375 5.49219L37.832 9.20312L33.6328 9.10547ZM37.5391 11L33.418 36.0781L30.0781 26.3125L33.1445 11.6055L37.5391 11ZM43.6914 16.2734L40.8789 31.6836L37.2266 26.3125L41.0547 8.67578L44.5703 11.5078L44.1016 14.0859L50.3516 9.67188L53.3008 13.9883L59.5312 9.57422L62.6758 14.1836L57.6953 38.0508L54.1992 30.707L58.1055 14.6914L53.0664 16.1172L49.1602 33.1484L45.8594 25.8047L48.9258 14.7891L43.6914 16.2734ZM99.4141 2.64062L101.562 8.44141L97.3828 10.9023L96.25 9.98438L75.7422 25.9023L106.367 26.4102L71.6602 31.918L66.7773 25.5898L99.4141 2.64062ZM101.758 24.9453L102.734 27.6797L106.621 25.707L108.867 15.0625L107.852 13.1484L104.453 14.6133L101.758 24.9453ZM97.1484 27.543L100.566 11.7227L108.828 9.35938L113.008 12.4258L110.312 28.7539L101.523 31.918L97.1484 27.543ZM117.148 24.9453L118.125 27.6797L122.012 25.707L124.258 15.0625L123.242 13.1484L119.844 14.6133L117.148 24.9453ZM112.539 27.543L115.957 11.7227L124.219 9.35938L128.398 12.4258L125.703 28.7539L116.914 31.918L112.539 27.543ZM133.203 23.3633L131.738 31.6836L128.086 26.3125L133.242 0.414062L136.758 3.24609L134.062 18.4805L141.289 11.2148L151.445 8.75391L135.742 21.8203L151.152 35.8047L133.203 23.3633Z" fill="#F20707"/>
</svg>
