<svg width="208" height="39" viewBox="0 0 208 39" fill="none" xmlns="http://www.w3.org/2000/svg">
<path d="M0.09375 23.6562L26.9297 26.1953L36.4219 2.23047L31.9297 29.7695L25.8164 32.4258L0.09375 23.6562ZM45.7188 20.5312L39.2734 25.1016V27.3477L43.668 28.1484L45.7188 20.5312ZM48.4531 29.0078L49.9961 29.2812L48.3359 29.5547L48.043 31.0195L42.3203 33.1484L43.0625 30.4336L35.7969 31.625L35.5039 22.0352L45.9531 19.6914L46.9883 15.8438L34.0781 9.28125L48.5508 11.4297L51.3047 15.1992L48.4531 29.0078ZM50.3086 27.0156L53.375 14.9844L58.2773 11.4102L71.8516 15.1797L58.2188 15.6289L55.4648 27.0547L68.0625 23.3438L55.6211 32.3281L50.3086 27.0156ZM70.2695 23.3633L68.8047 31.6836L65.1523 26.3125L70.3086 0.414062L73.8242 3.24609L71.1289 18.4805L78.3555 11.2148L88.5117 8.75391L72.8086 21.8203L88.2188 35.8047L70.2695 23.3633ZM103.688 9.96484L104.137 24.9844L123.922 10.2969L103.688 9.96484ZM102.75 8.28516L103.531 4.47656L103.648 8.14844L128.004 4.28125L132.887 10.6094L97.1836 35.3945L102.418 9.94531L93.2969 9.78906L102.75 8.28516ZM133.512 24.9453L134.488 27.6797L138.375 25.707L140.621 15.0625L139.605 13.1484L136.207 14.6133L133.512 24.9453ZM128.902 27.543L132.32 11.7227L140.582 9.35938L144.762 12.4258L142.066 28.7539L133.277 31.918L128.902 27.543ZM150.934 16.4297L147.281 37.2891L144.449 26.3125L148.277 8.67578L151.793 11.5078L151.246 14.5938L156.988 9.67188L160.133 14.2812L155.055 18.8516L155.562 14.7891L150.934 16.4297ZM182.457 8.24609L166.227 16.0977L173.844 22.6992L173.434 28.1094L156.129 33.5586L168.98 24.8672L161.324 17.7383L162.359 12.6406L182.457 8.24609ZM181.461 21.9961L187.906 17.4258V15.1797L183.512 14.3789L181.461 21.9961ZM181.227 22.8359L180.191 26.6836L193.102 33.2461L178.629 31.0977L175.875 27.3281L179.137 11.5078L191.383 10.9023L191.676 20.4922L181.227 22.8359ZM202.125 22.875L204.215 11.1367L207.867 16.5078L203.316 38.832L199.801 36L201.793 24.7695L194.684 29.7891L191.734 24.9844L194.293 10.9023L201.031 5.29688L195.914 24.4766L202.125 22.875Z" fill="#F20707"/>
</svg>
