<svg width="166" height="42" viewBox="0 0 166 42" fill="none" xmlns="http://www.w3.org/2000/svg">
<path d="M12.4336 25.7969L39.9727 41.1289L5.26562 29.0586L0.382812 22.7305L33.0195 5.64062L35.168 11.4414L30.9883 13.9023L29.8555 12.2031L12.5312 21.5L29.6602 23.2773L12.4336 25.7969ZM35.4219 39.0781L32.082 29.3125L37.2383 3.41406L40.7539 6.24609L35.4219 39.0781ZM43.6445 27.9453L44.6211 30.6797L48.5078 28.707L50.7539 18.0625L49.7383 16.1484L46.3398 17.6133L43.6445 27.9453ZM39.0352 30.543L42.4531 14.7227L50.7148 12.3594L54.8945 15.4258L52.1992 31.7539L43.4102 34.918L39.0352 30.543ZM60.7148 19.6836L57.9609 34.6836L54.3086 29.3125L58.1367 11.6758L61.6523 14.5078L60.9688 18.1992L68.8008 12.6719L71.9453 17.2812L66.9648 41.1484L63.4688 33.8047L67.375 17.7891L60.7148 19.6836ZM82.375 39.4102L77.9805 33.9023L83.293 10.6406L89.5039 6.05078L96.75 20.0156L112.473 0.640625L102.883 40.9336L103.996 17.2617L93.5859 30.9336L87.1602 16.3438L82.375 39.4102ZM119.738 28.0039L122.492 12.9453L126.145 18.3164L122.316 35.9531L118.801 33.1211L119.445 29.5859L111.848 34.957L108.703 30.3477L113.684 6.48047L117.18 13.8242L113.273 29.8398L119.738 28.0039ZM148.488 11.2461L132.258 19.0977L139.875 25.6992L139.465 31.1094L122.16 36.5586L135.012 27.8672L127.355 20.7383L128.391 15.6406L148.488 11.2461ZM147.043 26.3633L145.578 34.6836L141.926 29.3125L147.082 3.41406L150.598 6.24609L147.902 21.4805L155.129 14.2148L165.285 11.7539L149.582 24.8203L164.992 38.8047L147.043 26.3633Z" fill="#F20707"/>
</svg>
