<svg width="214" height="41" viewBox="0 0 214 41" fill="none" xmlns="http://www.w3.org/2000/svg">
<path d="M30.5352 10.1484L26.5508 12.4922L25.6328 10.7539L8.19141 19.0156L29.6172 22.6875L30.2227 28.5078L0.4375 37.4922L21.3555 26.2617L0.535156 22.1797L3.07422 16.5742L28.8945 4.42578L30.5352 10.1484ZM41.8242 27.0039L44.5781 11.9453L48.2305 17.3164L44.4023 34.9531L40.8867 32.1211L41.5312 28.5859L33.9336 33.957L30.7891 29.3477L35.7695 5.48047L39.2656 12.8242L35.3594 28.8398L41.8242 27.0039ZM54.4414 18.6836L51.6875 33.6836L48.0352 28.3125L51.8633 10.6758L55.3789 13.5078L54.6953 17.1992L62.5273 11.6719L65.6719 16.2812L60.6914 40.1484L57.1953 32.8047L61.1016 16.7891L54.4414 18.6836ZM76.2773 26.9648L77.5273 20.5977L73.3281 16.0859L69.4219 28.7422L76.2773 26.9648ZM80.1055 31.2617L74.7539 35.3633L75.9648 28.5664L67.9961 34.0547L65.2422 29.25L68.1914 16.5938L74.9297 10.9883L78.6211 16.8672L81.1602 5.46094L87.4688 0.0507812L80.1055 31.2617ZM93.0156 22.5312L86.5703 27.1016V29.3477L90.9648 30.1484L93.0156 22.5312ZM95.75 31.0078L97.293 31.2812L95.6328 31.5547L95.3398 33.0195L89.6172 35.1484L90.3594 32.4336L83.0938 33.625L82.8008 24.0352L93.25 21.6914L94.2852 17.8438L81.375 11.2812L95.8477 13.4297L98.6016 17.1992L95.75 31.0078ZM104.949 18.4297L101.297 39.2891L98.4648 28.3125L102.293 10.6758L105.809 13.5078L105.262 16.5938L111.004 11.6719L114.148 16.2812L109.07 20.8516L109.578 16.7891L104.949 18.4297ZM125.438 22.9023L146.492 14.0352L126.805 10.1484L125.438 22.9023ZM125.34 23.7617L124.031 35.9688L117.605 31.3594L122.723 7.39453L128.113 5.24609L153.328 10.9688L154.148 15.9688L125.34 23.7617ZM155.535 11.1055L156.824 4.66016L160.34 7.49219L159.734 11.2031L155.535 11.1055ZM159.441 13L155.32 38.0781L151.98 28.3125L155.047 13.6055L159.441 13ZM158.348 29.0156L161.414 16.9844L166.316 13.4102L179.891 17.1797L166.258 17.6289L163.504 29.0547L176.102 25.3438L163.66 34.3281L158.348 29.0156ZM179.285 19.7969L176.844 33.6836L173.191 28.3125L178.348 2.41406L181.863 5.24609L179.559 18.293L187.488 12.6875L190.438 17.4922L186.766 33.918L180.027 39.5234L186.258 18L179.285 19.7969ZM199.969 22.5312L193.523 27.1016V29.3477L197.918 30.1484L199.969 22.5312ZM202.703 31.0078L204.246 31.2812L202.586 31.5547L202.293 33.0195L196.57 35.1484L197.312 32.4336L190.047 33.625L189.754 24.0352L200.203 21.6914L201.238 17.8438L188.328 11.2812L202.801 13.4297L205.555 17.1992L202.703 31.0078ZM208.699 11.1055L209.988 4.66016L213.504 7.49219L212.898 11.2031L208.699 11.1055ZM212.605 13L208.484 38.0781L205.145 28.3125L208.211 13.6055L212.605 13Z" fill="#F20707"/>
</svg>
