<svg width="258" height="42" viewBox="0 0 258 42" fill="none" xmlns="http://www.w3.org/2000/svg">
<path d="M4.86328 39.4102L0.46875 33.9023L5.78125 10.6406L11.9922 6.05078L19.2383 20.0156L34.9609 0.640625L25.3711 40.9336L26.4844 17.2617L16.0742 30.9336L9.64844 16.3438L4.86328 39.4102ZM39.8633 23.5312L33.418 28.1016V30.3477L37.8125 31.1484L39.8633 23.5312ZM42.5977 32.0078L44.1406 32.2812L42.4805 32.5547L42.1875 34.0195L36.4648 36.1484L37.207 33.4336L29.9414 34.625L29.6484 25.0352L40.0977 22.6914L41.1328 18.8438L28.2227 12.2812L42.6953 14.4297L45.4492 18.1992L42.5977 32.0078ZM51.7969 19.4297L48.1445 40.2891L45.3125 29.3125L49.1406 11.6758L52.6562 14.5078L52.1094 17.5938L57.8516 12.6719L60.9961 17.2812L55.918 21.8516L56.4258 17.7891L51.7969 19.4297ZM64.1406 26.3633L62.6758 34.6836L59.0234 29.3125L64.1797 3.41406L67.6953 6.24609L65 21.4805L72.2266 14.2148L82.3828 11.7539L66.6797 24.8203L82.0898 38.8047L64.1406 26.3633ZM83.2031 7.4375L116.66 6.14844L93.2031 29.4102L119.941 27.4766L79.1211 38.082L104.59 10.6797L83.2031 7.4375ZM123.711 28.0039L126.465 12.9453L130.117 18.3164L126.289 35.9531L122.773 33.1211L123.418 29.5859L115.82 34.957L112.676 30.3477L117.656 6.48047L121.152 13.8242L117.246 29.8398L123.711 28.0039ZM129.492 30.0156L132.559 17.9844L137.461 14.4102L151.035 18.1797L137.402 18.6289L134.648 30.0547L147.246 26.3438L134.805 35.3281L129.492 30.0156ZM149.453 26.3633L147.988 34.6836L144.336 29.3125L149.492 3.41406L153.008 6.24609L150.312 21.4805L157.539 14.2148L167.695 11.7539L151.992 24.8203L167.402 38.8047L149.453 26.3633ZM169.316 24.9961L175.762 20.4258V18.1797L171.367 17.3789L169.316 24.9961ZM169.082 25.8359L168.047 29.6836L180.957 36.2461L166.484 34.0977L163.73 30.3281L166.992 14.5078L179.238 13.9023L179.531 23.4922L169.082 25.8359ZM185.586 19.4297L181.934 40.2891L179.102 29.3125L182.93 11.6758L186.445 14.5078L185.898 17.5938L191.641 12.6719L194.785 17.2812L189.707 21.8516L190.215 17.7891L185.586 19.4297ZM199.062 20.7773L197.812 27.1445L202.012 31.6562L205.918 19L199.062 20.7773ZM193.379 25.7383L198.398 3.41406L201.914 6.24609L199.375 19.1758L207.344 13.6875L210.098 18.4922L207.148 31.1484L200.41 36.7539L193.379 25.7383ZM215.293 24.9961L221.738 20.4258V18.1797L217.344 17.3789L215.293 24.9961ZM215.059 25.8359L214.023 29.6836L226.934 36.2461L212.461 34.0977L209.707 30.3281L212.969 14.5078L225.215 13.9023L225.508 23.4922L215.059 25.8359ZM231.562 19.4297L227.91 40.2891L225.078 29.3125L228.906 11.6758L232.422 14.5078L231.875 17.5938L237.617 12.6719L240.762 17.2812L235.684 21.8516L236.191 17.7891L231.562 19.4297ZM249.062 27.9648L250.312 21.5977L246.113 17.0859L242.207 29.7422L249.062 27.9648ZM247.754 35.4648L248.75 29.5664L240.781 35.0547L238.027 30.25L240.977 17.5938L247.715 11.9883L251.406 17.8672L252.422 13.3945L257.715 11.7539L251.562 37.9844L232.227 41.4414L247.754 35.4648Z" fill="#F20707"/>
</svg>
