<svg width="354" height="104" viewBox="0 0 354 104" fill="none" xmlns="http://www.w3.org/2000/svg">
<path d="M46.1562 55.125C46.7812 55.8281 47.3281 56.3359 47.7969 56.6484C47.6406 56.6484 46.8984 56.5703 45.5703 56.4141C42.7578 61.8828 39.3594 66.375 35.375 69.8906V69.6562C35.375 66.0625 34.8672 62.8594 33.8516 60.0469C33.3828 58.7188 32.7578 57.3516 31.9766 55.9453C31.1953 54.5391 30.5312 53.4844 29.9844 52.7812L29.2812 51.7266C29.3594 51.6484 29.4766 51.4922 29.6328 51.2578C29.7891 51.0234 29.9062 50.8672 29.9844 50.7891C29.0469 50.3203 27.6406 49.5781 25.7656 48.5625C23.9688 47.5469 22.6797 46.8438 21.8984 46.4531C21.1172 51.1406 20.1797 55.9062 19.0859 60.75C18.8516 61.6094 18.2656 64.5781 17.3281 69.6562C16.3906 74.7344 15.4922 79.5781 14.6328 84.1875L13.3438 91.1016L12.875 90.2812C12.5625 89.7344 12.1328 88.9922 11.5859 88.0547C11.1172 87.1953 10.5703 86.1797 9.94531 85.0078C9.32031 83.7578 8.65625 82.5078 7.95312 81.2578C7.25 79.9297 6.54688 78.6016 5.84375 77.2734C5.21875 75.9453 4.59375 74.6953 3.96875 73.5234C3.34375 72.2734 2.79688 71.1797 2.32812 70.2422C1.85938 69.3047 1.46875 68.5625 1.15625 68.0156L0.804688 67.0781C0.804688 63.875 1.85938 58.0547 3.96875 49.6172C5.76562 42.5859 6.66406 37 6.66406 32.8594C6.66406 29.1875 6.39062 25.7109 5.84375 22.4297C5.6875 21.8828 5.60938 21.0234 5.60938 19.8516H5.14062C4.67188 19.7734 4.39844 19.5391 4.32031 19.1484C4.32031 17.9766 7.48438 14.9297 13.8125 10.0078C20.6094 11.4141 24.0469 12.4688 24.125 13.1719C24.125 13.3281 24.0078 13.4453 23.7734 13.5234C23.6953 13.6016 23.6172 13.6406 23.5391 13.6406C25.0234 15.6719 26.5469 18.6797 28.1094 22.6641C31.7031 30.7109 34.0469 35.7891 35.1406 37.8984C38.1094 28.1328 39.6719 23.0547 39.8281 22.6641C40.0625 22.0391 40.2969 21.4531 40.5312 20.9062C41.1562 19.5 43.4219 14.8906 47.3281 7.07812C47.7969 6.14062 49.5547 4.65625 52.6016 2.625C53.6953 1.84375 54.3984 1.25781 54.7109 0.867188C54.9453 0.554688 55.0625 0.398438 55.0625 0.398438C55.2969 1.64844 57.5625 6.29688 61.8594 14.3438C61.9375 14.5 61.9766 14.6172 61.9766 14.6953C62.0547 13.4453 62.0938 12.6641 62.0938 12.3516V8.71875V6.14062C62.1719 6.14062 63.0312 7 64.6719 8.71875C66.3906 10.3594 68.2656 12.1953 70.2969 14.2266C72.3281 16.2578 74.2031 18.1328 75.9219 19.8516L78.3828 22.4297C78.3828 26.6484 77.7188 35.7891 76.3906 49.8516C76 54.5391 75.7266 58.5234 75.5703 61.8047C75.0234 74.2266 74.75 82.0781 74.75 85.3594V97.7812C74.75 97.8594 74.75 97.9766 74.75 98.1328C74.6719 98.2891 74.6328 98.4062 74.6328 98.4844C74.6328 98.5625 74.6719 98.6797 74.75 98.8359L53.5391 73.1719C54.2422 72 55.0625 69.5781 56 65.9062C58.8906 53.875 60.7656 40.6328 61.625 26.1797C58.2656 28.2109 55.375 32.1562 52.9531 38.0156C52.4062 39.3438 51.625 41.375 50.6094 44.1094C48.8125 49.0312 47.3281 52.7031 46.1562 55.125ZM101.469 73.5234C99.4375 78.0547 95.5312 88.0547 89.75 103.523C89.4375 103.523 86.4297 93.1719 80.7266 72.4688C80.1797 70.5938 79.9062 69.5781 79.9062 69.4219C80.0625 69.2656 80.2969 68.9922 80.6094 68.6016C81.0781 68.0547 81.4688 67.625 81.7812 67.3125C84.3594 64.4219 88.4609 58.1719 94.0859 48.5625C94.4766 47.9375 94.7891 47.3906 95.0234 46.9219C102.445 34.4219 110.141 20.1641 118.109 4.14844L121.625 16.1016L133.344 23.6016C135.531 43.1328 139.359 62.0781 144.828 80.4375C145.375 82.2344 146.039 84.3828 146.82 86.8828C147.68 89.5391 148.227 91.3359 148.461 92.2734C148.695 93.4453 148.852 94.0703 148.93 94.1484L125.492 78.9141L125.023 80.2031C124.555 79.5781 123.266 78.875 121.156 78.0938H121.039C119.32 77.3906 116.859 76.7266 113.656 76.1016H113.539C111.898 75.7891 109.398 75.2422 106.039 74.4609C103.93 74.0703 102.406 73.7578 101.469 73.5234ZM121.508 58.875C120.961 52.4688 120.102 45.4375 118.93 37.7812C115.805 43.3281 112.25 50.2422 108.266 58.5234C110.062 58.7578 111.82 58.875 113.539 58.875C113.93 58.875 114.477 58.875 115.18 58.875C116.273 58.9531 117.211 58.9922 117.992 58.9922C118.07 58.9922 119.242 58.9531 121.508 58.875ZM156.898 28.7578C156.82 29.2266 156.938 29.5391 157.25 29.6953C157.172 29.6172 157.094 29.4609 157.016 29.2266C156.938 28.9922 156.898 28.8359 156.898 28.7578ZM168.852 24.1875C169.242 23.4844 169.398 23.0937 169.32 23.0156C169.164 23.0937 169.008 23.1719 168.852 23.25L168.734 23.0156V23.1328C168.734 23.2109 168.773 23.4063 168.852 23.7188C168.852 23.9531 168.852 24.1094 168.852 24.1875ZM166.859 55.8281C164.125 70.4375 161.586 82.7422 159.242 92.7422C158.93 94.0703 158.734 94.7344 158.656 94.7344C158.188 94.7344 154.828 86.1797 148.578 69.0703C147.953 67.3516 147.641 66.4141 147.641 66.2578C147.641 63.3672 148.617 57.9375 150.57 49.9688C152.055 43.9531 152.797 39.1875 152.797 35.6719C152.797 34.8906 152.484 31.2578 151.859 24.7734C151.781 24.4609 151.742 24.1484 151.742 23.8359L151.273 24.0703C151.195 23.9141 151.117 23.7969 151.039 23.7188C151.117 22.625 152.562 19.8906 155.375 15.5156C160.375 14.4219 163.93 13.875 166.039 13.875C167.914 13.9531 168.891 14.3828 168.969 15.1641C168.969 15.3984 168.891 15.6719 168.734 15.9844C168.891 16.1406 169.047 16.2969 169.203 16.4531C169.359 16.6094 169.477 16.7656 169.555 16.9219C169.711 17 169.828 17.1172 169.906 17.2734C170.062 17.4297 170.18 17.5469 170.258 17.625C170.336 17.7031 170.414 17.7813 170.492 17.8594C170.57 17.9375 170.648 18.0156 170.727 18.0938V18.2109C171.898 20.0859 174.086 24.5391 177.289 31.5703C178.461 33.9922 179.477 35.9844 180.336 37.5469C183.383 42.9375 185.492 46.8047 186.664 49.1484C189.711 32.7422 191.82 18.2891 192.992 5.78906C202.289 17.0391 207.172 22.9375 207.641 23.4844C204.359 41.4531 202.719 57.3516 202.719 71.1797V74.9297C205.688 78.2891 207.328 80.125 207.641 80.4375C206.156 80.125 204.594 79.6562 202.953 79.0312C203.188 82.2344 203.891 87.8984 205.062 96.0234C205.062 96.4141 205.141 96.7266 205.297 96.9609C205.297 96.9609 202.602 94.7344 197.211 90.2812C195.648 88.7969 194.203 87.4297 192.875 86.1797C191.078 84.4609 189.203 82.5859 187.25 80.5547C185.375 78.5234 183.93 76.9219 182.914 75.75L181.391 73.875C181.703 73.25 182.172 71.7266 182.797 69.3047L167.914 60.0469C167.914 59.6562 167.562 58.25 166.859 55.8281ZM232.133 79.2656C232.133 81.375 232.211 84.4609 232.367 88.5234C232.523 91.1797 232.602 93.1328 232.602 94.3828V96.375V96.6094L232.719 96.8438C228.188 92.1562 221.625 84.8125 213.031 74.8125C212.094 73.7188 211.312 72.8203 210.688 72.1172C211.312 71.0234 212.094 68.6406 213.031 64.9688C216 52.3906 217.484 39.8516 217.484 27.3516C217.484 21.1797 216.898 14.4219 215.727 7.07812C216.43 7.07812 221.312 10.75 230.375 18.0938C232.641 19.9688 233.812 20.9844 233.891 21.1406C233.891 21.2187 233.852 21.3359 233.773 21.4922C233.773 21.6484 233.773 21.7656 233.773 21.8438C233.773 25.5156 233.344 38.6016 232.484 61.1016C232.25 68.0547 232.133 74.1094 232.133 79.2656ZM258.031 73.5234C256 78.0547 252.094 88.0547 246.312 103.523C246 103.523 242.992 93.1719 237.289 72.4688C236.742 70.5938 236.469 69.5781 236.469 69.4219C236.625 69.2656 236.859 68.9922 237.172 68.6016C237.641 68.0547 238.031 67.625 238.344 67.3125C240.922 64.4219 245.023 58.1719 250.648 48.5625C251.039 47.9375 251.352 47.3906 251.586 46.9219C259.008 34.4219 266.703 20.1641 274.672 4.14844L278.188 16.1016L289.906 23.6016C292.094 43.1328 295.922 62.0781 301.391 80.4375C301.938 82.2344 302.602 84.3828 303.383 86.8828C304.242 89.5391 304.789 91.3359 305.023 92.2734C305.258 93.4453 305.414 94.0703 305.492 94.1484L282.055 78.9141L281.586 80.2031C281.117 79.5781 279.828 78.875 277.719 78.0938H277.602C275.883 77.3906 273.422 76.7266 270.219 76.1016H270.102C268.461 75.7891 265.961 75.2422 262.602 74.4609C260.492 74.0703 258.969 73.7578 258.031 73.5234ZM278.07 58.875C277.523 52.4688 276.664 45.4375 275.492 37.7812C272.367 43.3281 268.812 50.2422 264.828 58.5234C266.625 58.7578 268.383 58.875 270.102 58.875C270.492 58.875 271.039 58.875 271.742 58.875C272.836 58.9531 273.773 58.9922 274.555 58.9922C274.633 58.9922 275.805 58.9531 278.07 58.875ZM353.656 22.6641C353.656 22.6641 351.742 22.2344 347.914 21.375C347.445 21.2969 347.055 21.2578 346.742 21.2578C343.773 21.3359 341.625 22.0781 340.297 23.4844C338.5 25.2031 337.602 28.0547 337.602 32.0391C332.68 34.3828 328.734 38.9531 325.766 45.75C323.656 50.5938 322.602 55.5547 322.602 60.6328C322.602 62.5859 322.797 64.5781 323.188 66.6094V66.7266C324.359 72.5078 326.82 76.8047 330.57 79.6172C331.664 80.3203 332.719 80.8672 333.734 81.2578C336.625 82.5859 341.664 83.25 348.852 83.25H350.023C344.398 88.25 338.266 91.5312 331.625 93.0938C329.594 93.5625 327.602 93.7969 325.648 93.7969C323.305 93.7969 320.961 93.5234 318.617 92.9766C316.273 92.4297 314.477 91.9219 313.227 91.4531L311.469 90.6328C311.391 90.3984 311 89.6172 310.297 88.2891C306.703 81.0234 304.906 73.1328 304.906 64.6172C304.906 61.1016 305.18 57.7031 305.727 54.4219C307.758 42.8594 312.68 33.0547 320.492 25.0078C322.992 22.3516 325.648 20.125 328.461 18.3281C332.133 16.0625 335.883 14.9297 339.711 14.9297H341.234C346.469 15.7891 350.609 18.3672 353.656 22.6641Z" fill="#F20707"/>
</svg>
