<svg width="152" height="54" viewBox="0 0 152 54" fill="none" xmlns="http://www.w3.org/2000/svg">
<path d="M45.3008 11.7227L39.3242 15.2383L37.9473 12.6309L11.7852 25.0234L43.9238 30.5312L44.832 39.2617L0.154297 52.7383L31.5312 35.8926L0.300781 29.7695L4.10938 21.3613L42.8398 3.13867L45.3008 11.7227ZM53.8262 32.4941L63.4941 25.6387V22.2695L56.9023 21.0684L53.8262 32.4941ZM53.4746 33.7539L51.9219 39.5254L71.2871 49.3691L49.5781 46.1465L45.4473 40.4922L50.3398 16.7617L68.709 15.8535L69.1484 30.2383L53.4746 33.7539ZM73.5137 53.6172L68.5039 38.9688L76.2383 0.121094L81.5117 4.36914L73.5137 53.6172ZM86.5215 32.4941L96.1895 25.6387V22.2695L89.5977 21.0684L86.5215 32.4941ZM86.1699 33.7539L84.6172 39.5254L103.982 49.3691L82.2734 46.1465L78.1426 40.4922L83.0352 16.7617L101.404 15.8535L101.844 30.2383L86.1699 33.7539ZM100.203 40.0234L104.803 21.9766L112.156 16.6152L132.518 22.2695L112.068 22.9434L107.938 40.082L126.834 34.5156L108.172 47.9922L100.203 40.0234ZM133.221 18.1973L127.479 53.6172L122.469 38.9688L126.248 20.043L111.893 23.793L126.893 16.791L130.203 0.121094L135.477 4.36914L134.012 13.4805L151.854 5.13086L145.73 14.916L133.221 18.1973Z" fill="#F2E307"/>
</svg>
