<svg width="587" height="592" viewBox="0 0 587 592" fill="none" xmlns="http://www.w3.org/2000/svg">
<path opacity="0.344" fill-rule="evenodd" clip-rule="evenodd" d="M218.639 556.35C224.509 562.939 231.815 566.406 240.559 566.752C248.094 566.553 254.287 563.581 259.135 557.836C259.63 557.464 260.125 557.093 260.621 556.721C253.776 565.754 244.736 569.036 233.5 566.567C227.292 564.894 222.339 561.489 218.639 556.35Z" fill="#8C8C8C"/>
<path fill-rule="evenodd" clip-rule="evenodd" d="M218.639 556.35C218.697 555.839 218.635 555.344 218.453 554.864C216.987 553.046 215.811 551.064 214.924 548.919C214.734 547.188 214.24 545.578 213.437 544.09C213.263 541.805 212.828 539.576 212.137 537.402C211.951 535.549 211.888 533.691 211.951 531.829C211.858 526.567 212.107 521.366 212.694 516.226C212.702 515.458 212.824 514.715 213.066 513.997C213.612 513.682 213.92 513.187 213.995 512.51C225.709 523.729 237.164 535.185 248.36 546.876C249.103 547.371 249.846 547.867 250.589 548.362C253.2 551.064 255.863 553.726 258.577 556.35C258.871 556.812 259.057 557.308 259.134 557.836C254.286 563.581 248.094 566.553 240.558 566.752C231.815 566.406 224.508 562.939 218.639 556.35Z" fill="#650B0B"/>
<path fill-rule="evenodd" clip-rule="evenodd" d="M214.181 509.91C214.493 508.483 214.493 507.121 214.181 505.823C214.181 505.575 214.304 505.452 214.552 505.452C215.976 501.124 217.523 496.789 219.196 492.449C220.313 488.787 221.242 485.072 221.983 481.303C222.686 479.399 223.677 477.603 224.955 475.916C226.707 475.857 228.44 476.043 230.156 476.473C233.5 476.968 236.844 477.464 240.187 477.959C243.057 478.718 246.029 479.09 249.104 479.074C254.103 479.724 259.181 479.972 264.336 479.817C264.96 480.821 265.579 481.812 266.194 482.789C266.625 486.291 266.996 489.82 267.308 493.377C267.384 494.693 267.756 495.869 268.423 496.907C268.67 496.907 268.794 497.03 268.794 497.278C268.549 497.885 268.425 498.566 268.423 499.322C269.266 506.55 269.886 513.795 270.28 521.056C270.18 525.523 269.933 529.981 269.537 534.43C269.537 534.678 269.537 534.925 269.537 535.173C268.897 536.02 268.65 537.011 268.794 538.145C268.145 538.696 267.712 539.439 267.494 540.375C267.377 542.334 266.882 544.191 266.008 545.947C264.348 549.142 262.8 552.361 261.364 555.607C260.565 555.757 259.822 555.943 259.135 556.164C244.888 541.917 230.584 527.614 216.224 513.254C215.853 512.238 215.173 511.619 214.181 511.396C214.181 510.901 214.181 510.405 214.181 509.91Z" fill="#650B0B"/>
<path fill-rule="evenodd" clip-rule="evenodd" d="M218.639 556.35C215.931 553.411 214.199 549.944 213.438 545.947C214.006 546.905 214.5 547.896 214.924 548.919C215.811 551.064 216.988 553.046 218.453 554.864C218.635 555.344 218.697 555.84 218.639 556.35Z" fill="#929292"/>
<path fill-rule="evenodd" clip-rule="evenodd" d="M261.364 555.607C262.8 552.361 264.348 549.142 266.008 545.947C266.882 544.191 267.377 542.334 267.494 540.374C267.711 539.439 268.145 538.696 268.794 538.145C267.611 544.552 265.134 550.372 261.364 555.607Z" fill="#777777"/>
<path fill-rule="evenodd" clip-rule="evenodd" d="M259.135 557.836C259.057 557.308 258.871 556.812 258.577 556.35C255.863 553.726 253.2 551.064 250.59 548.362C249.847 547.867 249.104 547.371 248.361 546.876C237.164 535.185 225.709 523.729 213.995 512.51C213.921 513.187 213.612 513.682 213.066 513.996C213.3 512.558 213.672 511.196 214.181 509.91C214.181 510.405 214.181 510.901 214.181 511.396C215.173 511.618 215.853 512.238 216.224 513.253C230.584 527.613 244.888 541.917 259.135 556.164C259.822 555.943 260.565 555.757 261.364 555.607C261.391 556.174 261.143 556.545 260.621 556.721C260.125 557.093 259.63 557.464 259.135 557.836Z" fill="#171717"/>
<path fill-rule="evenodd" clip-rule="evenodd" d="M214.924 548.919C214.5 547.896 214.006 546.905 213.438 545.947C213.438 545.328 213.438 544.709 213.438 544.09C214.24 545.578 214.734 547.188 214.924 548.919Z" fill="#434343"/>
<path opacity="0.761" fill-rule="evenodd" clip-rule="evenodd" d="M213.438 545.947C212.966 545.054 212.72 544.063 212.694 542.975C212.943 543.347 213.189 543.718 213.437 544.09C213.437 544.709 213.437 545.328 213.438 545.947Z" fill="#C0C0C0"/>
<path opacity="0.992" fill-rule="evenodd" clip-rule="evenodd" d="M268.794 538.145C268.65 537.011 268.897 536.02 269.537 535.173C269.513 536.261 269.265 537.252 268.794 538.145Z" fill="#A0A0A0"/>
<path fill-rule="evenodd" clip-rule="evenodd" d="M269.537 534.43C269.932 529.981 270.18 525.523 270.28 521.055C270.404 521.055 270.528 521.055 270.652 521.055C270.843 525.616 270.472 530.074 269.537 534.43Z" fill="#8F8F8F"/>
<path fill-rule="evenodd" clip-rule="evenodd" d="M211.952 531.83C211.521 528.428 211.461 524.96 211.766 521.427C211.848 519.602 212.16 517.868 212.695 516.226C212.108 521.366 211.859 526.567 211.952 531.83Z" fill="#333333"/>
<path opacity="0.541" fill-rule="evenodd" clip-rule="evenodd" d="M213.437 544.09C213.189 543.718 212.943 543.347 212.694 542.975C210.313 530.488 210.811 518.104 214.18 505.823C214.493 507.121 214.493 508.483 214.18 509.91C213.672 511.196 213.3 512.558 213.066 513.997C212.824 514.715 212.702 515.458 212.694 516.226C212.159 517.868 211.847 519.602 211.766 521.427C211.461 524.96 211.52 528.427 211.951 531.829C211.888 533.691 211.951 535.549 212.137 537.402C212.828 539.576 213.263 541.806 213.437 544.09Z" fill="#A5A5A5"/>
<path opacity="0.573" fill-rule="evenodd" clip-rule="evenodd" d="M270.651 521.055C270.528 521.055 270.404 521.055 270.28 521.055C269.885 513.794 269.266 506.55 268.422 499.322C268.424 498.566 268.548 497.885 268.794 497.278C269.757 505.176 270.376 513.102 270.651 521.055Z" fill="#ADADAD"/>
<path opacity="0.659" fill-rule="evenodd" clip-rule="evenodd" d="M214.552 505.452C216.748 497.279 219.225 489.23 221.982 481.303C221.242 485.072 220.313 488.787 219.196 492.448C217.523 496.789 215.975 501.123 214.552 505.452Z" fill="#A8A8A8"/>
<path opacity="0.612" fill-rule="evenodd" clip-rule="evenodd" d="M268.422 496.907C267.755 495.869 267.384 494.692 267.308 493.377C266.996 489.82 266.624 486.291 266.193 482.789C267.311 487.387 268.054 492.093 268.422 496.907Z" fill="#9B9B9B"/>
<path opacity="0.714" fill-rule="evenodd" clip-rule="evenodd" d="M266.193 482.789C265.579 481.812 264.96 480.821 264.336 479.817C265.63 480.323 266.249 481.314 266.193 482.789Z" fill="#979797"/>
<path fill-rule="evenodd" clip-rule="evenodd" d="M264.336 479.817C259.181 479.972 254.103 479.724 249.104 479.074C250.787 479.192 252.398 479.068 253.933 478.702C257.445 478.982 260.913 479.353 264.336 479.817Z" fill="#7C7C7C"/>
<path opacity="0.914" fill-rule="evenodd" clip-rule="evenodd" d="M253.933 478.702C252.397 479.068 250.787 479.192 249.103 479.074C246.207 478.502 243.235 478.13 240.187 477.959C236.843 477.464 233.5 476.968 230.156 476.473C229.413 476.102 228.67 475.73 227.927 475.358C236.523 477.021 245.192 478.136 253.933 478.702Z" fill="#B4B4B4"/>
<path fill-rule="evenodd" clip-rule="evenodd" d="M249.104 479.074C246.029 479.09 243.057 478.718 240.187 477.959C243.235 478.13 246.208 478.502 249.104 479.074Z" fill="#525252"/>
<path opacity="0.29" fill-rule="evenodd" clip-rule="evenodd" d="M258.392 476.473C258.392 476.35 258.392 476.225 258.392 476.102C260.5 476.163 262.606 476.101 264.707 475.916C265.692 475.859 266.559 475.549 267.308 474.987C267.281 475.697 266.909 476.131 266.194 476.287C263.596 476.473 260.995 476.535 258.392 476.473Z" fill="#535353"/>
<path opacity="0.919" fill-rule="evenodd" clip-rule="evenodd" d="M258.392 476.102C258.392 476.225 258.392 476.349 258.392 476.473C255.295 476.368 252.199 476.244 249.104 476.102C248.732 475.854 248.361 475.606 247.989 475.359C251.465 475.584 254.932 475.832 258.392 476.102Z" fill="#6F6F6F"/>
<path fill-rule="evenodd" clip-rule="evenodd" d="M258.392 476.102C254.932 475.832 251.465 475.584 247.989 475.359C245.877 475.268 243.772 475.083 241.673 474.801C237.057 473.868 232.475 472.939 227.927 472.015C227.444 471.305 227.073 470.562 226.812 469.786C226.019 463 226.577 456.312 228.484 449.724C229.694 447.519 230.499 445.166 230.899 442.665C230.811 442.185 230.935 441.814 231.271 441.55C231.596 441.599 231.844 441.475 232.014 441.179C235.472 433.324 241.169 427.813 249.104 424.646C252.462 423.917 255.805 423.979 259.135 424.832C259.704 425.48 260.447 425.852 261.364 425.947C261.732 425.883 261.98 426.007 262.107 426.318C262.51 427.094 263.129 427.589 263.964 427.804C264.134 428.649 264.629 429.144 265.45 429.29C266.156 430.863 267.147 432.225 268.423 433.377C268.532 434.586 269.027 435.577 269.909 436.349C270.158 437.719 270.468 439.082 270.837 440.436C270.98 440.642 271.165 440.766 271.395 440.807C271.904 444.569 272.275 448.346 272.509 452.139C272.275 455.547 272.027 458.952 271.766 462.355C271.866 462.95 271.742 463.445 271.395 463.842C270.547 465.975 269.804 468.204 269.166 470.529C268.893 470.978 268.769 471.473 268.794 472.015C267.95 472.8 267.455 473.79 267.308 474.987C266.559 475.549 265.692 475.859 264.707 475.916C262.606 476.101 260.5 476.163 258.392 476.102Z" fill="#650B0B"/>
<path fill-rule="evenodd" clip-rule="evenodd" d="M221.982 481.303C222.183 479.416 222.803 477.682 223.84 476.102C225.073 475.07 226.435 474.822 227.927 475.359C228.67 475.73 229.413 476.102 230.156 476.473C228.44 476.043 226.706 475.857 224.954 475.916C223.677 477.603 222.686 479.399 221.982 481.303Z" fill="#7A7A7A"/>
<path fill-rule="evenodd" clip-rule="evenodd" d="M249.104 476.102C241.843 475.541 234.784 474.179 227.927 472.015C232.475 472.939 237.057 473.868 241.673 474.801C243.772 475.082 245.877 475.268 247.989 475.359C248.36 475.606 248.732 475.854 249.104 476.102Z" fill="#929292"/>
<path fill-rule="evenodd" clip-rule="evenodd" d="M267.308 474.987C267.455 473.79 267.95 472.8 268.794 472.015C268.685 473.224 268.189 474.215 267.308 474.987Z" fill="#939393"/>
<path opacity="0.118" fill-rule="evenodd" clip-rule="evenodd" d="M268.794 472.015C268.769 471.473 268.893 470.978 269.166 470.529C269.289 470.529 269.413 470.529 269.537 470.529C269.478 471.143 269.23 471.638 268.794 472.015Z" fill="#C2C2C2"/>
<path fill-rule="evenodd" clip-rule="evenodd" d="M227.927 472.015C227.184 472.015 226.812 471.643 226.812 470.9C226.812 470.529 226.812 470.157 226.812 469.786C227.073 470.562 227.444 471.305 227.927 472.015Z" fill="#585858"/>
<path fill-rule="evenodd" clip-rule="evenodd" d="M269.537 470.529C269.413 470.529 269.289 470.529 269.165 470.529C269.804 468.204 270.547 465.975 271.395 463.841C271.076 466.16 270.456 468.389 269.537 470.529Z" fill="#787878"/>
<path fill-rule="evenodd" clip-rule="evenodd" d="M354.243 453.439C349.809 453.462 345.599 452.596 341.612 450.838C339.903 450.107 338.292 449.178 336.782 448.052C335.221 446.428 333.611 444.88 331.952 443.408C332.01 442.898 331.948 442.402 331.766 441.922C330.458 440.312 329.405 438.579 328.608 436.721C327.17 433.637 325.807 430.541 324.522 427.433C323.773 423.673 323.03 419.958 322.293 416.287C322.293 415.668 322.293 415.049 322.293 414.43C322.61 402.313 323.6 390.3 325.265 378.392C325.887 377.275 326.135 376.037 326.008 374.677C326.241 372.953 326.364 371.219 326.379 369.476C327.009 368.819 327.505 368.014 327.865 367.061C330.285 366.997 332.638 366.811 334.924 366.504C335.42 366.504 335.915 366.504 336.41 366.504C339.384 366.371 342.357 366.185 345.327 365.946C347.778 365.766 350.131 365.333 352.386 364.646C356.087 363.958 359.803 363.339 363.531 362.788C364.886 362.497 366.248 362.435 367.618 362.603C368.082 363.338 368.577 364.019 369.104 364.646C372.269 375.449 375.489 386.223 378.764 396.968C378.816 399.71 379.311 402.31 380.25 404.77C381.074 410.397 381.198 416.094 380.621 421.86C380.074 423.502 379.827 425.235 379.878 427.061C379.51 428.752 379.138 430.485 378.764 432.262C378.399 433.475 378.151 434.713 378.021 435.978C376.882 437.264 376.139 438.75 375.791 440.436C370.71 448.181 363.528 452.515 354.243 453.439Z" fill="#650B0B"/>
<path fill-rule="evenodd" clip-rule="evenodd" d="M354.243 453.439C352.957 453.804 351.595 453.928 350.156 453.811C349.785 453.811 349.413 453.811 349.042 453.811C348.173 453.238 347.182 452.991 346.07 453.068C344.801 453.057 343.686 452.686 342.726 451.953C342.282 451.666 341.911 451.295 341.612 450.838C345.599 452.596 349.809 453.462 354.243 453.439Z" fill="#606060"/>
<path opacity="0.088" fill-rule="evenodd" clip-rule="evenodd" d="M349.042 453.811C347.954 453.786 346.963 453.539 346.07 453.068C347.183 452.991 348.173 453.238 349.042 453.811Z" fill="#B6B6B6"/>
<path opacity="0.465" fill-rule="evenodd" clip-rule="evenodd" d="M271.766 462.355C272.027 458.952 272.275 455.547 272.509 452.139C272.275 448.346 271.903 444.569 271.395 440.807C272.508 444.451 273.004 448.228 272.881 452.139C272.975 455.648 272.604 459.053 271.766 462.355Z" fill="#8D8D8D"/>
<path fill-rule="evenodd" clip-rule="evenodd" d="M350.157 453.811C351.595 453.928 352.957 453.804 354.243 453.439C363.528 452.515 370.711 448.181 375.792 440.436C370.75 449.125 363.134 453.707 352.943 454.182C351.944 454.181 351.015 454.057 350.157 453.811Z" fill="#9A9A9A"/>
<path opacity="0.957" fill-rule="evenodd" clip-rule="evenodd" d="M226.812 470.9C225.603 463.688 226.036 456.506 228.113 449.352C228.753 446.962 229.682 444.733 230.899 442.665C230.499 445.166 229.694 447.518 228.484 449.724C226.576 456.312 226.019 463 226.812 469.786C226.812 470.157 226.812 470.529 226.812 470.9Z" fill="#A0A0A0"/>
<path fill-rule="evenodd" clip-rule="evenodd" d="M342.726 451.953C338.156 450.357 334.565 447.509 331.952 443.408C333.61 444.88 335.221 446.428 336.782 448.052C338.292 449.178 339.903 450.107 341.612 450.838C341.911 451.295 342.282 451.666 342.726 451.953Z" fill="#9F9F9F"/>
<path fill-rule="evenodd" clip-rule="evenodd" d="M331.952 443.408C330.548 441.876 329.433 440.142 328.609 438.207C328.609 437.711 328.609 437.216 328.609 436.721C329.405 438.579 330.458 440.312 331.767 441.922C331.949 442.402 332.011 442.898 331.952 443.408Z" fill="#737373"/>
<path opacity="0.541" fill-rule="evenodd" clip-rule="evenodd" d="M271.395 440.807C271.165 440.766 270.98 440.642 270.837 440.436C270.468 439.082 270.158 437.719 269.908 436.349C270.765 437.681 271.26 439.167 271.395 440.807Z" fill="#989898"/>
<path fill-rule="evenodd" clip-rule="evenodd" d="M375.791 440.436C376.139 438.75 376.882 437.264 378.021 435.978C377.662 437.686 376.919 439.172 375.791 440.436Z" fill="#8C8C8C"/>
<path fill-rule="evenodd" clip-rule="evenodd" d="M328.608 438.207C326.74 434.835 325.378 431.244 324.522 427.433C325.807 430.541 327.17 433.637 328.608 436.721C328.608 437.216 328.608 437.712 328.608 438.207Z" fill="#9F9F9F"/>
<path fill-rule="evenodd" clip-rule="evenodd" d="M378.02 435.978C378.151 434.713 378.399 433.475 378.763 432.262C379.135 431.519 379.506 430.776 379.878 430.033C379.547 432.138 378.928 434.12 378.02 435.978Z" fill="#A1A1A1"/>
<path opacity="0.863" fill-rule="evenodd" clip-rule="evenodd" d="M269.909 436.349C269.027 435.577 268.532 434.586 268.423 433.377C269.304 434.149 269.799 435.14 269.909 436.349Z" fill="#989898"/>
<path opacity="0.122" fill-rule="evenodd" clip-rule="evenodd" d="M268.422 433.377C267.147 432.225 266.156 430.863 265.45 429.29C266.726 430.442 267.716 431.805 268.422 433.377Z" fill="#A4A4A4"/>
<path fill-rule="evenodd" clip-rule="evenodd" d="M378.763 432.262C379.138 430.485 379.51 428.752 379.878 427.061C379.878 428.052 379.878 429.042 379.878 430.033C379.506 430.776 379.135 431.519 378.763 432.262Z" fill="#404040"/>
<path opacity="0.565" fill-rule="evenodd" clip-rule="evenodd" d="M265.45 429.29C264.629 429.144 264.134 428.649 263.964 427.804C264.785 427.951 265.28 428.446 265.45 429.29Z" fill="#B4B4B4"/>
<path opacity="0.71" fill-rule="evenodd" clip-rule="evenodd" d="M263.964 427.804C263.129 427.589 262.51 427.093 262.107 426.318C262.942 426.534 263.561 427.029 263.964 427.804Z" fill="#B1B1B1"/>
<path opacity="0.816" fill-rule="evenodd" clip-rule="evenodd" d="M231.27 441.55C233.988 435.071 238.323 429.932 244.274 426.132C249.091 423.504 254.044 423.071 259.134 424.832C255.805 423.979 252.461 423.917 249.103 424.646C241.168 427.813 235.471 433.324 232.013 441.179C231.844 441.475 231.596 441.599 231.27 441.55Z" fill="#959595"/>
<path opacity="0.71" fill-rule="evenodd" clip-rule="evenodd" d="M261.364 425.947C260.447 425.852 259.704 425.48 259.135 424.832C260.051 424.927 260.794 425.298 261.364 425.947Z" fill="#989898"/>
<path fill-rule="evenodd" clip-rule="evenodd" d="M379.878 427.061C379.827 425.235 380.074 423.502 380.621 421.86C380.673 423.685 380.425 425.419 379.878 427.061Z" fill="#3D3D3D"/>
<path opacity="0.824" fill-rule="evenodd" clip-rule="evenodd" d="M324.522 427.433C323.168 423.883 322.425 420.168 322.293 416.287C323.03 419.958 323.773 423.673 324.522 427.433Z" fill="#AAAAAA"/>
<path opacity="0.11" fill-rule="evenodd" clip-rule="evenodd" d="M322.293 414.429C321.862 410.284 321.8 406.073 322.107 401.798C322.832 393.104 323.761 384.436 324.893 375.791C325.253 376.574 325.377 377.441 325.265 378.392C323.6 390.3 322.609 402.313 322.293 414.429Z" fill="#ABABAB"/>
<path opacity="0.067" fill-rule="evenodd" clip-rule="evenodd" d="M379.878 430.033C379.878 429.042 379.878 428.052 379.878 427.061C380.425 425.419 380.673 423.685 380.621 421.86C381.198 416.094 381.074 410.397 380.25 404.77C380.242 403.004 379.994 401.27 379.507 399.569C379.514 399.113 379.638 398.742 379.878 398.454C381.485 407.438 381.795 416.478 380.807 425.575C380.683 427.149 380.373 428.635 379.878 430.033Z" fill="#B0B0B0"/>
<path fill-rule="evenodd" clip-rule="evenodd" d="M380.25 404.77C379.311 402.31 378.816 399.71 378.763 396.968C379.011 397.34 379.259 397.711 379.506 398.083C379.754 398.083 379.878 398.206 379.878 398.454C379.638 398.742 379.514 399.113 379.506 399.569C379.994 401.27 380.242 403.004 380.25 404.77Z" fill="#3D3D3D"/>
<path opacity="0.467" fill-rule="evenodd" clip-rule="evenodd" d="M379.507 398.083C379.259 397.711 379.012 397.339 378.764 396.968C375.489 386.223 372.269 375.449 369.104 364.646C370.773 368.348 372.198 372.187 373.377 376.163C375.687 383.402 377.73 390.708 379.507 398.083Z" fill="#9E9E9E"/>
<path fill-rule="evenodd" clip-rule="evenodd" d="M325.265 378.392C325.377 377.441 325.253 376.574 324.893 375.791C324.893 375.544 325.017 375.42 325.265 375.42C325.513 375.172 325.76 374.925 326.008 374.677C326.135 376.037 325.887 377.275 325.265 378.392Z" fill="#3C3C3C"/>
<path fill-rule="evenodd" clip-rule="evenodd" d="M325.265 375.42C325.359 373.341 325.731 371.36 326.379 369.476C326.365 371.219 326.241 372.953 326.008 374.677C325.76 374.925 325.513 375.172 325.265 375.42Z" fill="#8D8D8D"/>
<path fill-rule="evenodd" clip-rule="evenodd" d="M326.379 369.476C326.324 368.001 326.943 367.01 328.237 366.503C330.466 366.503 332.695 366.503 334.924 366.503C332.638 366.811 330.285 366.997 327.865 367.061C327.505 368.014 327.009 368.819 326.379 369.476Z" fill="#686868"/>
<path fill-rule="evenodd" clip-rule="evenodd" d="M336.41 366.503C340.765 366.027 345.1 365.408 349.414 364.646C349.537 364.646 349.661 364.646 349.785 364.646C350.652 364.646 351.519 364.646 352.386 364.646C350.131 365.333 347.778 365.766 345.327 365.946C342.357 366.185 339.384 366.371 336.41 366.503Z" fill="#6A6A6A"/>
<path opacity="0.612" fill-rule="evenodd" clip-rule="evenodd" d="M336.41 366.503C335.915 366.503 335.42 366.503 334.924 366.503C332.695 366.503 330.466 366.503 328.237 366.503C335.243 365.922 342.302 365.303 349.414 364.646C345.099 365.408 340.765 366.027 336.41 366.503Z" fill="#C9C9C9"/>
<path opacity="0.143" fill-rule="evenodd" clip-rule="evenodd" d="M352.386 364.646C351.519 364.646 350.652 364.646 349.785 364.646C354.301 363.79 358.883 363.047 363.531 362.417C363.531 362.541 363.531 362.665 363.531 362.788C359.803 363.339 356.087 363.958 352.386 364.646Z" fill="#BFBFBF"/>
<path opacity="0.565" fill-rule="evenodd" clip-rule="evenodd" d="M326.38 362.417C333.441 362.775 340.5 362.651 347.556 362.045C340.834 363.055 334.022 363.365 327.123 362.974C326.782 362.871 326.535 362.685 326.38 362.417Z" fill="#8F8F8F"/>
<path opacity="0.353" fill-rule="evenodd" clip-rule="evenodd" d="M369.104 364.646C368.577 364.019 368.082 363.338 367.618 362.603C366.248 362.435 364.886 362.498 363.531 362.788C363.531 362.665 363.531 362.541 363.531 362.417C364.947 361.991 366.433 361.929 367.989 362.231C368.714 362.875 369.086 363.68 369.104 364.646Z" fill="#7F7F7F"/>
<path fill-rule="evenodd" clip-rule="evenodd" d="M326.379 362.417C326.164 361.581 325.669 360.962 324.893 360.559C324.122 357.748 323.131 355.024 321.921 352.386C321.897 351.298 321.649 350.307 321.178 349.414C320.534 343.745 320.286 338.048 320.435 332.324C321.271 330.087 321.766 327.734 321.921 325.265C322.917 324.265 323.413 323.027 323.407 321.55C324.387 320.837 325.007 319.846 325.265 318.578C325.92 318.295 326.291 317.799 326.379 317.092C326.54 316.642 326.788 316.27 327.123 315.977C327.984 315.757 328.727 315.138 329.352 314.119C334.991 310.336 340.936 309.841 347.185 312.633C348.105 313.489 349.096 314.294 350.157 315.048C350.637 315.23 351.133 315.292 351.643 315.234C352.411 316.376 353.402 317.242 354.615 317.835C354.83 318.67 355.326 319.289 356.101 319.692C356.316 320.528 356.812 321.147 357.587 321.55C357.922 323.586 358.913 325.196 360.559 326.38C360.668 327.588 361.164 328.579 362.045 329.352C362.122 330.37 362.494 331.237 363.16 331.952C363.584 334.635 364.265 337.236 365.203 339.754C365.422 341.927 365.732 344.032 366.132 346.07C366.282 350.057 366.096 354.02 365.575 357.959C362.607 358.842 359.696 359.709 356.844 360.559C354.24 360.816 351.639 361.126 349.042 361.488C348.702 361.591 348.454 361.777 348.299 362.045C348.051 362.045 347.804 362.045 347.556 362.045C340.499 362.651 333.441 362.775 326.379 362.417Z" fill="#650B0B"/>
<path fill-rule="evenodd" clip-rule="evenodd" d="M326.379 362.417C325.604 362.014 325.109 361.395 324.893 360.559C325.669 360.962 326.164 361.581 326.379 362.417Z" fill="#7A7A7A"/>
<path opacity="0.533" fill-rule="evenodd" clip-rule="evenodd" d="M348.299 362.045C348.454 361.777 348.702 361.591 349.042 361.488C351.639 361.126 354.24 360.816 356.844 360.559C354.09 361.328 351.242 361.824 348.299 362.045Z" fill="#9B9B9B"/>
<path fill-rule="evenodd" clip-rule="evenodd" d="M324.894 360.559C323.396 358.051 322.405 355.326 321.921 352.386C323.131 355.024 324.122 357.748 324.894 360.559Z" fill="#878787"/>
<path opacity="0.724" fill-rule="evenodd" clip-rule="evenodd" d="M356.844 360.559C359.696 359.709 362.607 358.843 365.575 357.959C366.096 354.02 366.282 350.057 366.132 346.07C366.132 345.327 366.132 344.584 366.132 343.841C367.18 348.646 367.118 353.476 365.946 358.33C363.016 359.474 359.982 360.217 356.844 360.559Z" fill="#949494"/>
<path opacity="0.949" fill-rule="evenodd" clip-rule="evenodd" d="M321.921 352.386C321.349 351.517 321.102 350.526 321.178 349.414C321.649 350.307 321.897 351.298 321.921 352.386Z" fill="#AFAFAF"/>
<path fill-rule="evenodd" clip-rule="evenodd" d="M359.073 358.702C358.794 359.1 358.423 359.162 357.959 358.887C346.529 347.519 335.136 336.064 323.779 324.522C323.965 324.143 324.213 324.081 324.522 324.336C335.84 336.032 347.357 347.487 359.073 358.702Z" fill="#181818"/>
<path fill-rule="evenodd" clip-rule="evenodd" d="M321.178 349.414C320.683 348.015 320.374 346.529 320.249 344.955C319.943 340.68 320.005 336.469 320.435 332.324C320.286 338.048 320.534 343.745 321.178 349.414Z" fill="#8C8C8C"/>
<path fill-rule="evenodd" clip-rule="evenodd" d="M366.132 346.07C365.731 344.032 365.422 341.927 365.203 339.754C364.265 337.236 363.584 334.635 363.16 331.952C364.947 335.678 365.938 339.641 366.132 343.841C366.132 344.584 366.132 345.327 366.132 346.07Z" fill="#8C8C8C"/>
<path opacity="0.247" fill-rule="evenodd" clip-rule="evenodd" d="M363.16 331.952C362.494 331.237 362.122 330.37 362.045 329.352C362.711 330.067 363.083 330.934 363.16 331.952Z" fill="#B4B4B4"/>
<path opacity="0.824" fill-rule="evenodd" clip-rule="evenodd" d="M320.435 332.324C320.463 329.829 320.958 327.476 321.921 325.265C321.766 327.734 321.271 330.087 320.435 332.324Z" fill="#949494"/>
<path opacity="0.694" fill-rule="evenodd" clip-rule="evenodd" d="M362.045 329.352C361.164 328.579 360.669 327.588 360.559 326.379C361.243 327.252 361.739 328.243 362.045 329.352Z" fill="#8F8F8F"/>
<path opacity="0.098" fill-rule="evenodd" clip-rule="evenodd" d="M360.559 326.379C358.913 325.196 357.922 323.586 357.587 321.55C358.869 322.961 359.86 324.571 360.559 326.379Z" fill="#989898"/>
<path opacity="0.059" fill-rule="evenodd" clip-rule="evenodd" d="M321.921 325.265C322.205 323.914 322.7 322.675 323.407 321.55C323.412 323.026 322.917 324.265 321.921 325.265Z" fill="#ABABAB"/>
<path opacity="0.024" fill-rule="evenodd" clip-rule="evenodd" d="M357.587 321.55C356.812 321.147 356.316 320.528 356.101 319.692C356.876 320.095 357.371 320.714 357.587 321.55Z" fill="#B5B5B5"/>
<path opacity="0.694" fill-rule="evenodd" clip-rule="evenodd" d="M323.407 321.55C323.841 320.431 324.461 319.44 325.265 318.578C325.006 319.846 324.387 320.837 323.407 321.55Z" fill="#999999"/>
<path opacity="0.01" fill-rule="evenodd" clip-rule="evenodd" d="M356.101 319.692C355.326 319.289 354.83 318.67 354.615 317.835C355.39 318.238 355.886 318.857 356.101 319.692Z" fill="#C2C2C2"/>
<path opacity="0.929" fill-rule="evenodd" clip-rule="evenodd" d="M354.615 317.834C353.402 317.242 352.411 316.376 351.643 315.234C352.855 315.826 353.846 316.693 354.615 317.834Z" fill="#A5A5A5"/>
<path opacity="0.024" fill-rule="evenodd" clip-rule="evenodd" d="M325.265 318.578C325.353 317.87 325.725 317.375 326.379 317.092C326.291 317.799 325.919 318.295 325.265 318.578Z" fill="#BCBCBC"/>
<path fill-rule="evenodd" clip-rule="evenodd" d="M351.643 315.234C351.132 315.292 350.637 315.23 350.157 315.048C349.096 314.294 348.105 313.489 347.184 312.633C347.432 312.633 347.68 312.633 347.927 312.633C349.373 313.214 350.612 314.08 351.643 315.234Z" fill="#575757"/>
<path opacity="0.01" fill-rule="evenodd" clip-rule="evenodd" d="M327.122 315.977C327.647 315.08 328.39 314.461 329.352 314.119C328.727 315.138 327.984 315.757 327.122 315.977Z" fill="#CACACA"/>
<path opacity="0.063" fill-rule="evenodd" clip-rule="evenodd" d="M329.352 314.119C331.179 311.968 333.532 310.791 336.411 310.59C338.763 310.342 341.117 310.342 343.47 310.59C345.123 310.984 346.609 311.666 347.928 312.633C347.68 312.633 347.432 312.633 347.185 312.633C340.936 309.841 334.991 310.336 329.352 314.119Z" fill="#8E8E8E"/>
<path opacity="0.553" fill-rule="evenodd" clip-rule="evenodd" d="M238.329 280.311C241.796 280.784 245.263 280.784 248.732 280.311C245.267 281.288 241.799 281.288 238.329 280.311Z" fill="#AEAEAE"/>
<path fill-rule="evenodd" clip-rule="evenodd" d="M238.329 280.311C237.586 279.94 236.843 279.568 236.1 279.197C241.055 280.171 246.009 280.171 250.961 279.197C250.218 279.568 249.475 279.94 248.732 280.311C245.263 280.784 241.796 280.784 238.329 280.311Z" fill="#252525"/>
<path opacity="0.667" fill-rule="evenodd" clip-rule="evenodd" d="M238.33 280.311C236.969 280.228 235.731 279.857 234.614 279.196C235.11 279.196 235.605 279.196 236.1 279.196C236.844 279.568 237.587 279.94 238.33 280.311Z" fill="#A9A9A9"/>
<path opacity="0.898" fill-rule="evenodd" clip-rule="evenodd" d="M234.614 279.197C232.748 278.944 231.138 278.201 229.785 276.967C231.632 277.257 233.242 278 234.614 279.197Z" fill="#9B9B9B"/>
<path opacity="0.722" fill-rule="evenodd" clip-rule="evenodd" d="M229.785 276.968C227.47 276.012 225.613 274.526 224.212 272.509C226.309 273.745 228.167 275.231 229.785 276.968Z" fill="#A1A1A1"/>
<path fill-rule="evenodd" clip-rule="evenodd" d="M224.212 272.509C222.8 271.594 221.809 270.356 221.24 268.794C222.369 269.923 223.36 271.162 224.212 272.509Z" fill="#979797"/>
<path fill-rule="evenodd" clip-rule="evenodd" d="M236.1 279.197C235.605 279.197 235.109 279.197 234.614 279.197C233.242 278 231.631 277.257 229.784 276.968C228.166 275.231 226.309 273.745 224.212 272.509C223.359 271.162 222.369 269.923 221.239 268.794C221.298 268.284 221.236 267.788 221.054 267.308C217.657 262.152 215.862 256.456 215.667 250.218C215.314 244.649 215.25 239.076 215.481 233.5C216.237 228.89 217.166 224.308 218.267 219.754C218.267 219.259 218.267 218.762 218.267 218.268C218.602 217.974 218.85 217.602 219.01 217.153C219.893 215.745 220.388 214.136 220.496 212.323C220.948 210.934 221.505 209.574 222.168 208.236C222.353 207.252 222.415 206.264 222.354 205.264C222.764 204.707 223.136 204.09 223.468 203.407C224.482 200.375 225.225 197.28 225.698 194.119C226.35 193.729 226.598 193.108 226.441 192.261C227.136 191.31 227.879 190.381 228.67 189.475C230.057 189.423 231.419 189.609 232.756 190.032C234.259 190.656 235.869 190.901 237.586 190.775C239.012 190.935 240.374 191.184 241.673 191.518C244.576 192.031 247.548 192.402 250.589 192.633C252.557 192.919 254.539 193.045 256.534 193.004C260.309 193.391 264.148 193.703 268.051 193.933C268.95 195.787 269.569 197.704 269.908 199.692C271.357 209.44 272.472 219.222 273.252 229.042C273.392 232.632 273.516 236.223 273.624 239.816C273.311 243.483 272.94 247.198 272.509 250.961C271.109 255.247 269.499 259.458 267.679 263.593C266.954 264.045 266.397 264.664 266.007 265.45C262.249 261.197 258.225 257.172 253.933 253.376C253.376 252.571 252.818 251.766 252.261 250.961C242.685 241.863 233.273 232.699 224.026 223.469C223.846 223.117 223.785 222.745 223.84 222.354C223.449 222.41 223.078 222.348 222.725 222.168C222.104 221.609 221.732 220.928 221.611 220.125C220.718 220.165 220.037 219.794 219.568 219.011C219.32 219.382 219.32 219.754 219.568 220.125C234.269 234.747 249.068 249.36 263.964 263.964C264.606 264.848 265.226 265.715 265.822 266.565C263.596 271.207 260.252 274.861 255.791 277.525C254.242 278.301 252.632 278.858 250.961 279.197C246.009 280.171 241.055 280.171 236.1 279.197Z" fill="#650B0B"/>
<path opacity="0.702" fill-rule="evenodd" clip-rule="evenodd" d="M221.24 268.794C219.239 266.28 217.815 263.431 216.967 260.249C215.843 256.107 215.161 251.897 214.924 247.617C215.173 248.484 215.418 249.351 215.667 250.218C215.862 256.456 217.657 262.152 221.054 267.308C221.236 267.788 221.298 268.284 221.24 268.794Z" fill="#A0A0A0"/>
<path fill-rule="evenodd" clip-rule="evenodd" d="M248.732 280.311C249.475 279.94 250.218 279.568 250.961 279.196C252.632 278.858 254.242 278.301 255.791 277.525C260.252 274.86 263.596 271.207 265.822 266.565C266.714 265.752 267.333 264.761 267.68 263.593C269.5 259.458 271.11 255.247 272.509 250.961C270.988 258.583 267.954 265.519 263.407 271.766C259.532 276.396 254.64 279.244 248.732 280.311Z" fill="#979797"/>
<path fill-rule="evenodd" clip-rule="evenodd" d="M265.822 266.565C265.226 265.715 264.606 264.848 263.964 263.964C249.068 249.36 234.269 234.747 219.567 220.125C219.32 219.754 219.32 219.382 219.567 219.011C220.037 219.794 220.718 220.165 221.611 220.125C221.732 220.928 222.103 221.609 222.725 222.168C223.078 222.348 223.449 222.41 223.84 222.354C223.785 222.745 223.846 223.117 224.026 223.469C233.273 232.699 242.685 241.863 252.261 250.961C252.818 251.766 253.376 252.571 253.933 253.376C258.225 257.172 262.249 261.197 266.007 265.45C266.397 264.664 266.954 264.045 267.679 263.593C267.333 264.761 266.713 265.752 265.822 266.565Z" fill="#161616"/>
<path fill-rule="evenodd" clip-rule="evenodd" d="M272.509 250.961C272.94 247.198 273.311 243.483 273.624 239.816C273.747 239.816 273.871 239.816 273.995 239.816C273.985 243.648 273.49 247.363 272.509 250.961Z" fill="#929292"/>
<path opacity="0.668" fill-rule="evenodd" clip-rule="evenodd" d="M273.995 239.815C273.871 239.815 273.747 239.815 273.624 239.815C273.516 236.223 273.393 232.632 273.252 229.041C273.5 230.28 273.747 231.518 273.995 232.757C273.995 235.109 273.995 237.463 273.995 239.815Z" fill="#545454"/>
<path fill-rule="evenodd" clip-rule="evenodd" d="M215.667 250.218C215.418 249.351 215.173 248.484 214.924 247.617C214.118 239.025 214.861 230.604 217.153 222.354C217.581 221.507 217.952 220.641 218.268 219.753C217.166 224.308 216.237 228.89 215.481 233.5C215.251 239.076 215.314 244.649 215.667 250.218Z" fill="#878787"/>
<path opacity="0.263" fill-rule="evenodd" clip-rule="evenodd" d="M217.153 222.354C217.243 220.876 217.614 219.512 218.268 218.267C218.268 218.762 218.268 219.259 218.268 219.753C217.952 220.641 217.581 221.507 217.153 222.354Z" fill="#B1B1B1"/>
<path opacity="0.396" fill-rule="evenodd" clip-rule="evenodd" d="M218.267 218.267C218.549 216.436 219.045 214.701 219.753 213.066C219.66 214.459 219.413 215.823 219.01 217.153C218.85 217.602 218.602 217.974 218.267 218.267Z" fill="#B6B6B6"/>
<path fill-rule="evenodd" clip-rule="evenodd" d="M219.011 217.153C219.413 215.823 219.66 214.459 219.754 213.066C220.001 212.817 220.249 212.572 220.497 212.323C220.388 214.136 219.893 215.745 219.011 217.153Z" fill="#3C3C3C"/>
<path fill-rule="evenodd" clip-rule="evenodd" d="M273.995 232.757C273.747 231.518 273.5 230.28 273.252 229.041C272.472 219.222 271.357 209.44 269.908 199.691C269.908 198.948 269.908 198.205 269.908 197.462C272.108 209.08 273.47 220.845 273.995 232.757Z" fill="#A4A4A4"/>
<path opacity="0.973" fill-rule="evenodd" clip-rule="evenodd" d="M219.754 213.066C220.408 210.362 221.275 207.761 222.354 205.264C222.415 206.264 222.353 207.252 222.169 208.236C221.505 209.574 220.948 210.934 220.497 212.323C220.249 212.572 220.001 212.817 219.754 213.066Z" fill="#9A9A9A"/>
<path opacity="0.898" fill-rule="evenodd" clip-rule="evenodd" d="M222.354 205.264C223.18 201.426 224.295 197.711 225.698 194.119C225.226 197.28 224.483 200.375 223.469 203.407C223.136 204.09 222.764 204.707 222.354 205.264Z" fill="#A5A5A5"/>
<path opacity="0.251" fill-rule="evenodd" clip-rule="evenodd" d="M269.909 199.692C269.569 197.704 268.95 195.787 268.051 193.933C264.148 193.703 260.309 193.391 256.534 193.004C258.515 193.004 260.497 193.004 262.478 193.004C264.34 192.941 266.198 193.004 268.051 193.19C269.282 194.342 269.901 195.765 269.909 197.462C269.909 198.205 269.909 198.948 269.909 199.692Z" fill="#808080"/>
<path opacity="0.424" fill-rule="evenodd" clip-rule="evenodd" d="M225.698 194.119C225.661 193.357 225.909 192.737 226.441 192.261C226.598 193.108 226.35 193.729 225.698 194.119Z" fill="#919191"/>
<path opacity="0.223" fill-rule="evenodd" clip-rule="evenodd" d="M262.478 193.004C260.497 193.004 258.515 193.004 256.534 193.004C254.539 193.045 252.557 192.919 250.589 192.633C250.094 192.384 249.599 192.139 249.103 191.89C253.615 192.287 258.073 192.659 262.478 193.004Z" fill="#B7B7B7"/>
<path fill-rule="evenodd" clip-rule="evenodd" d="M250.589 192.633C247.548 192.402 244.576 192.031 241.673 191.518C244.15 191.641 246.626 191.767 249.103 191.89C249.599 192.138 250.094 192.384 250.589 192.633Z" fill="#5D5D5D"/>
<path opacity="0.315" fill-rule="evenodd" clip-rule="evenodd" d="M253.933 189.66C259.143 189.909 264.344 189.909 269.537 189.66C269.254 189.947 268.882 190.132 268.423 190.218C263.519 190.511 258.689 190.325 253.933 189.66Z" fill="#ABABAB"/>
<path opacity="0.557" fill-rule="evenodd" clip-rule="evenodd" d="M249.104 191.89C246.627 191.767 244.15 191.641 241.673 191.518C240.374 191.184 239.012 190.935 237.586 190.775C236.075 190.199 234.466 189.95 232.757 190.032C232.509 189.783 232.261 189.538 232.014 189.289C237.758 190.162 243.455 191.028 249.104 191.89Z" fill="#B2B2B2"/>
<path fill-rule="evenodd" clip-rule="evenodd" d="M237.586 190.775C235.869 190.901 234.259 190.656 232.757 190.032C234.466 189.95 236.075 190.199 237.586 190.775Z" fill="#414141"/>
<path fill-rule="evenodd" clip-rule="evenodd" d="M253.933 189.66C252.182 189.716 250.448 189.59 248.732 189.289C248.223 188.81 247.541 188.565 246.689 188.546C245.075 188.226 243.527 188.226 242.045 188.546C241.255 188.342 240.512 188.096 239.816 187.803C236.853 186.737 233.757 185.871 230.528 185.202C230.058 180.376 230.058 175.546 230.528 170.713C231.271 167.12 232.014 163.532 232.757 159.939C234.383 157.06 235.931 154.088 237.401 151.023C239.267 148.478 241.186 146.003 243.159 143.592C244.781 142.656 246.267 141.541 247.617 140.248C249.987 139.32 252.34 138.454 254.676 137.648C256.286 137.648 257.896 137.648 259.506 137.648C261.297 138.48 263.154 139.223 265.079 139.877C265.255 140.401 265.626 140.646 266.193 140.62C266.718 141.515 267.461 142.136 268.422 142.478C268.764 143.44 269.383 144.183 270.28 144.707C271.543 147.047 272.658 149.462 273.624 151.951C273.749 152.334 273.996 152.52 274.367 152.509C275.887 159.616 276.258 166.801 275.481 174.057C275.481 174.306 275.481 174.551 275.481 174.8C274.069 179.08 272.706 183.412 271.395 187.803C270.652 188.297 270.032 188.917 269.537 189.66C264.344 189.909 259.143 189.909 253.933 189.66Z" fill="#650B0B"/>
<path opacity="0.957" fill-rule="evenodd" clip-rule="evenodd" d="M269.537 189.661C270.032 188.917 270.651 188.297 271.395 187.803C271.147 188.795 270.528 189.412 269.537 189.661Z" fill="#868686"/>
<path opacity="0.516" fill-rule="evenodd" clip-rule="evenodd" d="M226.441 192.261C227.044 188.992 228.901 188 232.014 189.289C232.262 189.538 232.509 189.783 232.757 190.032C231.42 189.608 230.057 189.423 228.67 189.475C227.879 190.381 227.136 191.31 226.441 192.261Z" fill="#848484"/>
<path opacity="0.541" fill-rule="evenodd" clip-rule="evenodd" d="M248.732 189.289C246.503 189.04 244.274 188.795 242.045 188.546C243.527 188.226 245.075 188.226 246.689 188.546C247.541 188.564 248.223 188.81 248.732 189.289Z" fill="#A9A9A9"/>
<path opacity="0.98" fill-rule="evenodd" clip-rule="evenodd" d="M239.815 187.803C237.182 187.424 234.581 186.867 232.014 186.131C231.337 186.057 230.842 185.748 230.527 185.202C233.757 185.871 236.853 186.737 239.815 187.803Z" fill="#919191"/>
<path opacity="0.98" fill-rule="evenodd" clip-rule="evenodd" d="M271.395 187.803C272.707 183.412 274.069 179.08 275.481 174.8C274.929 179.429 273.567 183.761 271.395 187.803Z" fill="#8F8F8F"/>
<path fill-rule="evenodd" clip-rule="evenodd" d="M230.527 185.202C230.259 185.046 230.073 184.801 229.97 184.459C229.254 179.864 229.315 175.279 230.156 170.713C230.28 170.713 230.404 170.713 230.527 170.713C230.058 175.546 230.058 180.376 230.527 185.202Z" fill="#818181"/>
<path fill-rule="evenodd" clip-rule="evenodd" d="M323.407 163.283C323.243 161.759 322.5 160.645 321.178 159.939C320.831 158.252 320.088 156.766 318.949 155.481C319.009 154.849 318.947 154.229 318.763 153.623C317.917 151.881 317.112 150.146 316.349 148.422C316.075 145.647 315.456 143.046 314.491 140.62C314.491 140.497 314.491 140.371 314.491 140.248C314.34 138.146 314.216 136.039 314.119 133.933C314.046 128.724 314.169 123.523 314.491 118.329C314.791 116.115 314.914 113.885 314.862 111.641C314.862 111.27 314.862 110.898 314.862 110.527C315.468 109.958 315.778 109.215 315.791 108.298C315.977 106.57 316.039 104.835 315.977 103.097C316.206 103.056 316.392 102.933 316.534 102.725C316.687 100.86 316.873 99.0024 317.092 97.1522C317.436 94.8116 317.684 92.4562 317.835 90.0933C318.274 88.8673 319.017 87.8122 320.064 86.9354C322.661 86.7497 325.262 86.6865 327.866 86.7497C332.57 86.4413 337.276 86.1292 341.983 85.8209C342.324 85.7168 342.571 85.5311 342.726 85.2636C346.334 84.3459 350.049 83.7887 353.872 83.5918C354.826 83.2574 355.693 82.8227 356.473 82.2914C357.373 82.1763 358.24 82.3026 359.073 82.663C360.209 84.4723 361.199 86.3298 362.045 88.2357C362.409 91.3082 363.152 94.2804 364.275 97.1522C364.214 97.9064 364.276 98.6494 364.46 99.3813C364.987 100.306 365.545 101.176 366.132 101.982C366.882 105.125 367.811 108.22 368.918 111.27C369.455 115.019 370.383 118.611 371.705 122.044C372.832 131.99 372.584 141.898 370.962 151.765C369.255 156.168 367.15 160.381 364.646 164.397C361.704 167.47 358.36 169.948 354.615 171.828C348.77 173.83 342.825 174.138 336.782 172.756C331.593 170.598 327.135 167.44 323.407 163.283Z" fill="#650B0B"/>
<path opacity="0.439" fill-rule="evenodd" clip-rule="evenodd" d="M323.407 163.283C327.134 167.44 331.592 170.598 336.782 172.756C342.825 174.138 348.769 173.83 354.615 171.828C343.493 176.304 333.648 174.32 325.079 165.883C324.429 165.055 323.872 164.185 323.407 163.283Z" fill="#9F9F9F"/>
<path opacity="0.863" fill-rule="evenodd" clip-rule="evenodd" d="M354.615 171.828C358.36 169.948 361.704 167.47 364.646 164.397C362.156 167.997 358.812 170.475 354.615 171.828Z" fill="#A1A1A1"/>
<path opacity="0.42" fill-rule="evenodd" clip-rule="evenodd" d="M230.528 170.713C230.404 170.713 230.28 170.713 230.156 170.713C230.415 166.935 231.282 163.342 232.757 159.939C232.014 163.532 231.271 167.12 230.528 170.713Z" fill="#A0A0A0"/>
<path fill-rule="evenodd" clip-rule="evenodd" d="M323.407 163.283C322.376 162.372 321.632 161.258 321.178 159.939C322.5 160.645 323.243 161.759 323.407 163.283Z" fill="#7F7F7F"/>
<path opacity="0.241" fill-rule="evenodd" clip-rule="evenodd" d="M275.481 174.057C276.258 166.801 275.887 159.616 274.367 152.509C275.224 154.615 275.781 156.844 276.039 159.196C276.287 163.283 276.287 167.369 276.039 171.456C275.97 172.4 275.784 173.265 275.481 174.057Z" fill="#999999"/>
<path fill-rule="evenodd" clip-rule="evenodd" d="M321.178 159.939C320.051 158.676 319.308 157.19 318.949 155.481C320.087 156.766 320.83 158.252 321.178 159.939Z" fill="#9C9C9C"/>
<path fill-rule="evenodd" clip-rule="evenodd" d="M364.646 164.397C367.151 160.381 369.256 156.168 370.962 151.766C370.029 156.603 367.924 160.812 364.646 164.397Z" fill="#939393"/>
<path opacity="0.161" fill-rule="evenodd" clip-rule="evenodd" d="M318.949 155.481C317.724 153.296 316.857 150.941 316.348 148.422C317.112 150.146 317.917 151.881 318.763 153.623C318.947 154.229 319.008 154.849 318.949 155.481Z" fill="#A4A4A4"/>
<path opacity="0.102" fill-rule="evenodd" clip-rule="evenodd" d="M232.757 159.939C234.732 153.504 238.199 148.058 243.159 143.592C241.186 146.003 239.267 148.478 237.401 151.023C235.931 154.088 234.383 157.06 232.757 159.939Z" fill="#A2A2A2"/>
<path fill-rule="evenodd" clip-rule="evenodd" d="M370.962 151.766C372.584 141.898 372.832 131.99 371.705 122.044C372.697 125.956 373.192 129.98 373.191 134.118C373.082 138.157 372.773 142.184 372.262 146.193C372.034 148.147 371.6 150.005 370.962 151.766Z" fill="#989898"/>
<path fill-rule="evenodd" clip-rule="evenodd" d="M274.367 152.509C273.996 152.52 273.748 152.334 273.624 151.951C272.658 149.462 271.543 147.047 270.28 144.707C272.317 146.921 273.679 149.522 274.367 152.509Z" fill="#7D7D7D"/>
<path fill-rule="evenodd" clip-rule="evenodd" d="M316.348 148.422C315.33 145.959 314.711 143.358 314.491 140.62C315.456 143.046 316.075 145.647 316.348 148.422Z" fill="#7B7B7B"/>
<path opacity="0.024" fill-rule="evenodd" clip-rule="evenodd" d="M270.28 144.707C269.383 144.183 268.764 143.44 268.422 142.478C269.319 143.001 269.938 143.744 270.28 144.707Z" fill="#A6A6A6"/>
<path fill-rule="evenodd" clip-rule="evenodd" d="M268.422 142.478C267.461 142.136 266.717 141.515 266.193 140.62C267.155 140.962 267.898 141.582 268.422 142.478Z" fill="#8E8E8E"/>
<path opacity="0.2" fill-rule="evenodd" clip-rule="evenodd" d="M243.159 143.592C244.376 142.117 245.862 141.003 247.617 140.248C246.267 141.541 244.781 142.656 243.159 143.592Z" fill="#969696"/>
<path opacity="0.612" fill-rule="evenodd" clip-rule="evenodd" d="M266.193 140.62C265.626 140.646 265.255 140.401 265.079 139.877C265.646 139.851 266.018 140.096 266.193 140.62Z" fill="#949494"/>
<path opacity="0.871" fill-rule="evenodd" clip-rule="evenodd" d="M265.079 139.877C263.154 139.223 261.297 138.48 259.506 137.648C261.631 137.819 263.489 138.562 265.079 139.877Z" fill="#9C9C9C"/>
<path fill-rule="evenodd" clip-rule="evenodd" d="M247.617 140.248C249.608 138.45 251.96 137.585 254.676 137.648C252.34 138.454 249.987 139.32 247.617 140.248Z" fill="#9E9E9E"/>
<path opacity="0.083" fill-rule="evenodd" clip-rule="evenodd" d="M314.491 140.248C313.996 138.852 313.686 137.365 313.562 135.79C313.256 132.38 313.318 129.036 313.748 125.759C313.627 128.553 313.751 131.276 314.119 133.933C314.216 136.039 314.34 138.146 314.491 140.248Z" fill="#BFBFBF"/>
<path opacity="0.01" fill-rule="evenodd" clip-rule="evenodd" d="M314.119 133.933C313.751 131.276 313.627 128.553 313.748 125.759C313.687 123.27 313.81 120.792 314.119 118.329C314.243 118.329 314.367 118.329 314.491 118.329C314.169 123.523 314.045 128.724 314.119 133.933Z" fill="#838383"/>
<path opacity="0.255" fill-rule="evenodd" clip-rule="evenodd" d="M371.705 122.044C370.383 118.611 369.454 115.019 368.918 111.27C367.81 108.22 366.882 105.125 366.132 101.982C365.68 100.266 365.061 98.6569 364.274 97.1523C363.152 94.2805 362.409 91.3083 362.045 88.2358C366.159 99.2179 369.379 110.486 371.705 122.044Z" fill="#9E9E9E"/>
<path opacity="0.467" fill-rule="evenodd" clip-rule="evenodd" d="M314.491 118.329C314.367 118.329 314.243 118.329 314.119 118.329C314.176 116.025 314.423 113.796 314.862 111.642C314.914 113.885 314.791 116.115 314.491 118.329Z" fill="#C5C5C5"/>
<path opacity="0.059" fill-rule="evenodd" clip-rule="evenodd" d="M314.862 110.527C315.12 106.73 315.615 103.015 316.348 99.3813C316.407 100.644 316.283 101.885 315.977 103.096C316.038 104.835 315.976 106.57 315.791 108.298C315.777 109.215 315.468 109.958 314.862 110.527Z" fill="#B2B2B2"/>
<path fill-rule="evenodd" clip-rule="evenodd" d="M366.132 101.982C365.544 101.176 364.987 100.306 364.46 99.3813C364.276 98.6494 364.214 97.9064 364.274 97.1522C365.061 98.6568 365.68 100.266 366.132 101.982Z" fill="#3B3B3B"/>
<path fill-rule="evenodd" clip-rule="evenodd" d="M315.977 103.097C316.283 101.885 316.407 100.645 316.348 99.3814C316.348 99.0098 316.348 98.6383 316.348 98.2668C316.596 97.8953 316.844 97.5238 317.091 97.1523C316.872 99.0024 316.687 100.86 316.534 102.725C316.392 102.933 316.206 103.056 315.977 103.097Z" fill="#5C5C5C"/>
<path opacity="0.525" fill-rule="evenodd" clip-rule="evenodd" d="M316.348 98.2667C316.61 95.4543 317.106 92.7274 317.834 90.0933C317.684 92.4562 317.436 94.8116 317.091 97.1522C316.844 97.5237 316.596 97.8952 316.348 98.2667Z" fill="#ABABAB"/>
<path opacity="0.868" fill-rule="evenodd" clip-rule="evenodd" d="M317.834 90.0934C318.067 86.59 319.925 85.3528 323.407 86.3782C324.893 86.3782 326.379 86.3782 327.865 86.3782C327.865 86.5008 327.865 86.6271 327.865 86.7497C325.262 86.6866 322.661 86.7497 320.063 86.9355C319.016 87.8123 318.273 88.8674 317.834 90.0934Z" fill="#999999"/>
<path fill-rule="evenodd" clip-rule="evenodd" d="M327.865 86.7498C327.865 86.6272 327.865 86.5008 327.865 86.3782C332.817 85.9733 337.77 85.6018 342.726 85.2637C342.571 85.5312 342.323 85.7169 341.983 85.821C337.276 86.1293 332.569 86.4414 327.865 86.7498Z" fill="#323232"/>
<path opacity="0.816" fill-rule="evenodd" clip-rule="evenodd" d="M362.045 88.2358C361.199 86.3299 360.209 84.4724 359.073 82.6631C358.24 82.3027 357.373 82.1764 356.473 82.2915C358.785 81.2996 360.333 82.0426 361.117 84.5206C361.619 85.7169 361.929 86.9541 362.045 88.2358Z" fill="#898989"/>
<path opacity="0.604" fill-rule="evenodd" clip-rule="evenodd" d="M327.866 86.3782C326.38 86.3782 324.894 86.3782 323.407 86.3782C334.448 85.6017 345.47 84.2382 356.473 82.2915C355.693 82.8227 354.826 83.2574 353.872 83.5918C350.049 83.7887 346.334 84.346 342.726 85.2636C337.771 85.6017 332.817 85.9732 327.866 86.3782Z" fill="#B2B2B2"/>
<path opacity="0.517" fill-rule="evenodd" clip-rule="evenodd" d="M316.349 80.4339C316.845 80.7348 317.217 81.1695 317.463 81.7342C318.454 82.1057 319.444 82.4772 320.435 82.8487C324.768 82.897 329.103 82.8339 333.438 82.663C328.809 83.3651 324.104 83.5509 319.321 83.2202C317.657 82.9788 316.667 82.05 316.349 80.4339Z" fill="#969696"/>
<path fill-rule="evenodd" clip-rule="evenodd" d="M316.348 80.4339C316.466 79.3268 316.095 78.4611 315.234 77.8333C314.867 76.3546 314.495 74.8685 314.119 73.375C313.586 70.7744 313.029 68.1738 312.447 65.5731C312.261 61.3638 312.199 57.1545 312.261 52.9415C312.654 50.9799 312.902 48.9997 313.004 46.9972C313.978 45.5706 314.597 43.9582 314.862 42.1674C316.486 39.6114 318.344 37.1965 320.435 34.9228C321.161 34.5699 321.781 34.072 322.292 33.4367C324.374 32.337 326.479 31.4082 328.608 30.6503C330.342 30.6503 332.076 30.6503 333.81 30.6503C335.753 31.464 337.735 32.207 339.754 32.8795C339.93 33.4033 340.301 33.6485 340.868 33.6225C341.874 34.6293 342.989 35.495 344.212 36.2231C345.107 37.3674 346.098 38.3557 347.184 39.1953C347.421 40.0461 347.916 40.6665 348.67 41.0529C349.392 42.4015 350.135 43.765 350.899 45.1396C351.069 45.4368 351.317 45.5594 351.642 45.5111C353.398 49.4158 355.008 53.3799 356.472 57.3997C356.985 60.9143 357.48 64.3843 357.958 67.8022C358.07 70.8078 357.946 73.78 357.587 76.7187C357.24 77.1162 357.116 77.6103 357.215 78.2048C355.66 78.5912 354.174 79.0853 352.757 79.6909C350.533 79.9992 348.304 80.3076 346.07 80.6197C345.863 80.7608 345.739 80.9466 345.698 81.1769C343.574 81.3181 341.469 81.5633 339.382 81.92C337.721 81.7008 336.235 81.9497 334.924 82.663C334.429 82.663 333.933 82.663 333.438 82.663C329.102 82.8339 324.768 82.8971 320.435 82.8488C319.444 82.4773 318.454 82.1057 317.463 81.7342C317.216 81.1695 316.845 80.7348 316.348 80.4339Z" fill="#650B0B"/>
<path fill-rule="evenodd" clip-rule="evenodd" d="M334.924 82.663C336.235 81.9496 337.721 81.7007 339.382 81.9199C339.382 82.0425 339.382 82.1688 339.382 82.2914C337.903 82.4846 336.417 82.6072 334.924 82.663Z" fill="#6D6D6D"/>
<path opacity="0.235" fill-rule="evenodd" clip-rule="evenodd" d="M339.382 82.2915C339.382 82.1689 339.382 82.0426 339.382 81.92C341.469 81.5633 343.574 81.3181 345.698 81.1769C343.682 81.7862 341.577 82.1578 339.382 82.2915Z" fill="#B0B0B0"/>
<path opacity="0.455" fill-rule="evenodd" clip-rule="evenodd" d="M345.698 81.1769C345.74 80.9465 345.863 80.7608 346.07 80.6196C348.304 80.3075 350.533 79.9992 352.757 79.6908C350.507 80.4636 348.154 80.9577 345.698 81.1769Z" fill="#929292"/>
<path opacity="0.016" fill-rule="evenodd" clip-rule="evenodd" d="M316.348 80.4338C315.682 79.7168 315.311 78.8512 315.234 77.8332C316.095 78.4611 316.466 79.3267 316.348 80.4338Z" fill="#9C9C9C"/>
<path fill-rule="evenodd" clip-rule="evenodd" d="M352.757 79.6908C354.175 79.0852 355.661 78.5911 357.215 78.2047C357.116 77.6103 357.24 77.1162 357.587 76.7186C357.587 77.2128 357.587 77.7106 357.587 78.2047C356.137 79.0964 354.527 79.5905 352.757 79.6908Z" fill="#747474"/>
<path opacity="0.98" fill-rule="evenodd" clip-rule="evenodd" d="M315.234 77.8333C314.253 76.1317 313.634 74.2741 313.376 72.2605C313.624 72.632 313.872 73.0035 314.119 73.375C314.495 74.8685 314.867 76.3546 315.234 77.8333Z" fill="#9E9E9E"/>
<path opacity="0.067" fill-rule="evenodd" clip-rule="evenodd" d="M357.587 78.2048C357.587 77.7107 357.587 77.2129 357.587 76.7188C357.946 73.78 358.07 70.8079 357.958 67.8023C358.388 70.9565 358.45 74.1776 358.144 77.4618C358.041 77.8036 357.855 78.0488 357.587 78.2048Z" fill="#B8B8B8"/>
<path fill-rule="evenodd" clip-rule="evenodd" d="M314.119 73.375C313.871 73.0035 313.624 72.632 313.376 72.2604C311.609 65.9483 311.114 59.5099 311.89 52.9415C312.014 52.9415 312.138 52.9415 312.262 52.9415C312.2 57.1545 312.262 61.3638 312.447 65.5731C313.029 68.1737 313.586 70.7744 314.119 73.375Z" fill="#6E6E6E"/>
<path opacity="0.439" fill-rule="evenodd" clip-rule="evenodd" d="M357.959 67.8022C357.48 64.3843 356.985 60.9143 356.472 57.3997C357.604 60.7285 358.099 64.1948 357.959 67.8022Z" fill="#ACACAC"/>
<path opacity="0.01" fill-rule="evenodd" clip-rule="evenodd" d="M356.473 57.3997C355.009 53.3798 353.399 49.4157 351.643 45.5111C353.971 49.1445 355.581 53.1049 356.473 57.3997Z" fill="#9B9B9B"/>
<path opacity="0.576" fill-rule="evenodd" clip-rule="evenodd" d="M312.262 52.9415C312.138 52.9415 312.014 52.9415 311.89 52.9415C311.985 50.8647 312.356 48.8808 313.005 46.9972C312.902 48.9997 312.654 50.9799 312.262 52.9415Z" fill="#989898"/>
<path fill-rule="evenodd" clip-rule="evenodd" d="M313.005 46.9972C313.266 45.2176 313.886 43.6089 314.862 42.1674C314.597 43.9582 313.978 45.5706 313.005 46.9972Z" fill="#9E9E9E"/>
<path opacity="0.776" fill-rule="evenodd" clip-rule="evenodd" d="M351.643 45.5111C351.317 45.5594 351.069 45.4368 350.9 45.1396C350.135 43.765 349.392 42.4015 348.67 41.0529C350.029 42.2789 351.019 43.765 351.643 45.5111Z" fill="#A0A0A0"/>
<path opacity="0.784" fill-rule="evenodd" clip-rule="evenodd" d="M348.67 41.0529C347.916 40.6665 347.421 40.046 347.184 39.1953C347.96 39.5965 348.455 40.2169 348.67 41.0529Z" fill="#979797"/>
<path opacity="0.01" fill-rule="evenodd" clip-rule="evenodd" d="M347.185 39.1953C346.098 38.3557 345.107 37.3674 344.212 36.2232C345.567 36.8325 346.557 37.8244 347.185 39.1953Z" fill="#999999"/>
<path opacity="0.612" fill-rule="evenodd" clip-rule="evenodd" d="M344.212 36.2231C342.989 35.495 341.875 34.6293 340.869 33.6225C342.304 34.0646 343.418 34.934 344.212 36.2231Z" fill="#838383"/>
<path opacity="0.204" fill-rule="evenodd" clip-rule="evenodd" d="M340.869 33.6225C340.301 33.6485 339.93 33.4033 339.754 32.8795C340.321 32.8535 340.693 33.0987 340.869 33.6225Z" fill="#B7B7B7"/>
<path opacity="0.522" fill-rule="evenodd" clip-rule="evenodd" d="M314.862 42.1674C317.312 35.7512 321.894 31.9134 328.608 30.6503C326.479 31.4082 324.374 32.337 322.293 33.4367C321.781 34.072 321.161 34.5698 320.435 34.9227C318.344 37.1964 316.486 39.6113 314.862 42.1674Z" fill="#9B9B9B"/>
<path opacity="0.31" fill-rule="evenodd" clip-rule="evenodd" d="M339.754 32.8794C337.735 32.2069 335.753 31.4639 333.81 30.6503C336.037 30.7766 338.019 31.5196 339.754 32.8794Z" fill="#ACACAC"/>
</svg>
