<svg width="76" height="42" viewBox="0 0 76 42" fill="none" xmlns="http://www.w3.org/2000/svg">
<path d="M4.43359 39.4102L0.0390625 33.9023L5.35156 10.6406L11.5625 6.05078L18.8086 20.0156L34.5312 0.640625L24.9414 40.9336L26.0547 17.2617L15.6445 30.9336L9.21875 16.3438L4.43359 39.4102ZM34.4531 12.1055L35.7422 5.66016L39.2578 8.49219L38.6523 12.2031L34.4531 12.1055ZM38.3594 14L34.2383 39.0781L30.8984 29.3125L33.9648 14.6055L38.3594 14ZM44.2578 19.6836L41.5039 34.6836L37.8516 29.3125L41.6797 11.6758L45.1953 14.5078L44.5117 18.1992L52.3438 12.6719L55.4883 17.2812L50.5078 41.1484L47.0117 33.8047L50.918 17.7891L44.2578 19.6836ZM63.1055 15.4648L59.2773 39.0781L55.9375 29.3125L58.457 16.6953L48.8867 19.1953L58.8867 14.5273L61.0938 3.41406L64.6094 6.24609L63.6328 12.3203L75.5273 6.75391L71.4453 13.2773L63.1055 15.4648Z" fill="#F2E307"/>
</svg>
