<svg width="234" height="42" viewBox="0 0 234 42" fill="none" xmlns="http://www.w3.org/2000/svg">
<path d="M5.38672 39.4102L0.992188 33.9023L6.30469 10.6406L12.5156 6.05078L19.7617 20.0156L35.4844 0.640625L25.8945 40.9336L27.0078 17.2617L16.5977 30.9336L10.1719 16.3438L5.38672 39.4102ZM36.1094 27.9453L37.0859 30.6797L40.9727 28.707L43.2188 18.0625L42.2031 16.1484L38.8047 17.6133L36.1094 27.9453ZM31.5 30.543L34.918 14.7227L43.1797 12.3594L47.3594 15.4258L44.6641 31.7539L35.875 34.918L31.5 30.543ZM57.3984 27.9453L60.1523 12.9453L63.8047 18.3164L61.0312 28.5117L50.0938 34.957L46.9492 30.3477L51.9297 6.48047L55.4258 13.8242L51.5195 29.8398L57.3984 27.9453ZM69.332 24.9961L75.7773 20.4258V18.1797L71.3828 17.3789L69.332 24.9961ZM69.0977 25.8359L68.0625 29.6836L80.9727 36.2461L66.5 34.0977L63.7461 30.3281L67.0078 14.5078L79.2539 13.9023L79.5469 23.4922L69.0977 25.8359ZM96.0117 15.4648L92.1836 39.0781L88.8438 29.3125L91.3633 16.6953L81.793 19.1953L91.793 14.5273L94 3.41406L97.5156 6.24609L96.5391 12.3203L108.434 6.75391L104.352 13.2773L96.0117 15.4648ZM101.227 27.9453L102.203 30.6797L106.09 28.707L108.336 18.0625L107.32 16.1484L103.922 17.6133L101.227 27.9453ZM96.6172 30.543L100.035 14.7227L108.297 12.3594L112.477 15.4258L109.781 31.7539L100.992 34.918L96.6172 30.543ZM125.934 28.0039L134.176 31.0898L140.719 13.9414L139.156 11.5586L129.078 13.3945L125.934 28.0039ZM118.883 29.4688L125.094 9.80078L140.66 6.85156L147.066 10.6602L139.039 30.9727L125.582 34.918L118.883 29.4688ZM143.102 30.0156L146.168 17.9844L151.07 14.4102L164.645 18.1797L151.012 18.6289L148.258 30.0547L160.855 26.3438L148.414 35.3281L143.102 30.0156ZM165.113 15.4648L161.285 39.0781L157.945 29.3125L160.465 16.6953L150.895 19.1953L160.895 14.5273L163.102 3.41406L166.617 6.24609L165.641 12.3203L177.535 6.75391L173.453 13.2773L165.113 15.4648ZM177.379 23.5312L170.934 28.1016V30.3477L175.328 31.1484L177.379 23.5312ZM180.113 32.0078L181.656 32.2812L179.996 32.5547L179.703 34.0195L173.98 36.1484L174.723 33.4336L167.457 34.625L167.164 25.0352L177.613 22.6914L178.648 18.8438L165.738 12.2812L180.211 14.4297L182.965 18.1992L180.113 32.0078ZM193.219 27.9648L194.469 21.5977L190.27 17.0859L186.363 29.7422L193.219 27.9648ZM191.91 35.4648L192.906 29.5664L184.938 35.0547L182.184 30.25L185.133 17.5938L191.871 11.9883L195.562 17.8672L196.578 13.3945L201.871 11.7539L195.719 37.9844L176.383 41.4414L191.91 35.4648ZM204.938 27.9453L205.914 30.6797L209.801 28.707L212.047 18.0625L211.031 16.1484L207.633 17.6133L204.938 27.9453ZM200.328 30.543L203.746 14.7227L212.008 12.3594L216.188 15.4258L213.492 31.7539L204.703 34.918L200.328 30.543ZM222.008 19.6836L219.254 34.6836L215.602 29.3125L219.43 11.6758L222.945 14.5078L222.262 18.1992L230.094 12.6719L233.238 17.2812L228.258 41.1484L224.762 33.8047L228.668 17.7891L222.008 19.6836Z" fill="#F2E307"/>
</svg>
