<svg width="285" height="39" viewBox="0 0 285 39" fill="none" xmlns="http://www.w3.org/2000/svg">
<path d="M12.2461 22.7969L39.7852 38.1289L5.07812 26.0586L0.195312 19.7305L32.832 2.64062L34.9805 8.44141L30.8008 10.9023L29.668 9.20312L12.3438 18.5L29.4727 20.2773L12.2461 22.7969ZM38.3008 16.6836L35.5469 31.6836L31.8945 26.3125L35.7227 8.67578L39.2383 11.5078L38.5547 15.1992L46.3867 9.67188L49.5312 14.2812L44.5508 38.1484L41.0547 30.8047L44.9609 14.7891L38.3008 16.6836ZM57.1484 12.4648L53.3203 36.0781L49.9805 26.3125L52.5 13.6953L42.9297 16.1953L52.9297 11.5273L55.1367 0.414062L58.6523 3.24609L57.6758 9.32031L69.5703 3.75391L65.4883 10.2773L57.1484 12.4648ZM64.6484 21.9961L71.0938 17.4258V15.1797L66.6992 14.3789L64.6484 21.9961ZM64.4141 22.8359L63.3789 26.6836L76.2891 33.2461L61.8164 31.0977L59.0625 27.3281L62.3242 11.5078L74.5703 10.9023L74.8633 20.4922L64.4141 22.8359ZM80.918 16.4297L77.2656 37.2891L74.4336 26.3125L78.2617 8.67578L81.7773 11.5078L81.2305 14.5938L86.9727 9.67188L90.1172 14.2812L85.0391 18.8516L85.5469 14.7891L80.918 16.4297ZM100.02 16.4297L96.3672 37.2891L93.5352 26.3125L97.3633 8.67578L100.879 11.5078L100.332 14.5938L106.074 9.67188L109.219 14.2812L104.141 18.8516L104.648 14.7891L100.02 16.4297ZM112.656 21.9961L119.102 17.4258V15.1797L114.707 14.3789L112.656 21.9961ZM112.422 22.8359L111.387 26.6836L124.297 33.2461L109.824 31.0977L107.07 27.3281L110.332 11.5078L122.578 10.9023L122.871 20.4922L112.422 22.8359ZM121.777 27.0156L124.844 14.9844L129.746 11.4102L143.32 15.1797L129.688 15.6289L126.934 27.0547L139.531 23.3438L127.09 32.3281L121.777 27.0156ZM140.332 24.9453L141.309 27.6797L145.195 25.707L147.441 15.0625L146.426 13.1484L143.027 14.6133L140.332 24.9453ZM135.723 27.543L139.141 11.7227L147.402 9.35938L151.582 12.4258L148.887 28.7539L140.098 31.918L135.723 27.543ZM161.621 24.9453L164.375 9.94531L168.027 15.3164L165.254 25.5117L154.316 31.957L151.172 27.3477L156.152 3.48047L159.648 10.8242L155.742 26.8398L161.621 24.9453ZM173.555 21.9961L180 17.4258V15.1797L175.605 14.3789L173.555 21.9961ZM173.32 22.8359L172.285 26.6836L185.195 33.2461L170.723 31.0977L167.969 27.3281L171.23 11.5078L183.477 10.9023L183.77 20.4922L173.32 22.8359ZM189.824 16.4297L186.172 37.2891L183.34 26.3125L187.168 8.67578L190.684 11.5078L190.137 14.5938L195.879 9.67188L199.023 14.2812L193.945 18.8516L194.453 14.7891L189.824 16.4297ZM208.008 22.875L210.098 11.1367L213.75 16.5078L209.199 38.832L205.684 36L207.676 24.7695L200.566 29.7891L197.617 24.9844L200.176 10.9023L206.914 5.29688L201.797 24.4766L208.008 22.875ZM242.09 33.5586L222.188 30.5312L221.152 25.4336L230.566 14.9844L217.715 10.1992L235.02 11.7422L235.43 15.5898L226.055 27.0742L242.09 33.5586ZM239.434 24.9453L240.41 27.6797L244.297 25.707L246.543 15.0625L245.527 13.1484L242.129 14.6133L239.434 24.9453ZM234.824 27.543L238.242 11.7227L246.504 9.35938L250.684 12.4258L247.988 28.7539L239.199 31.918L234.824 27.543ZM256.504 16.6836L253.75 31.6836L250.098 26.3125L253.926 8.67578L257.441 11.5078L256.758 15.1992L264.59 9.67188L267.734 14.2812L262.754 38.1484L259.258 30.8047L263.164 14.7891L256.504 16.6836ZM273.086 21.9961L279.531 17.4258V15.1797L275.137 14.3789L273.086 21.9961ZM272.852 22.8359L271.816 26.6836L284.727 33.2461L270.254 31.0977L267.5 27.3281L270.762 11.5078L283.008 10.9023L283.301 20.4922L272.852 22.8359Z" fill="#04DAF6"/>
</svg>
