<svg width="725" height="204" viewBox="0 0 725 204" fill="none" xmlns="http://www.w3.org/2000/svg">
<path d="M49.668 39.9688L42.9883 67.8594L100.176 44.5391L49.668 39.9688ZM42.5781 69.7344L33.8477 106.355L89.1602 82.8008L42.5781 69.7344ZM30.625 107.762L19.082 107L36.25 23.6211L129.883 34.4609V44.832L71.4062 65.9844L125.02 75.7695L120.391 87.7227L0.0976562 120.77L30.625 107.762ZM135.859 41.3164L139.727 21.9805L150.273 30.4766L148.457 41.6094L135.859 41.3164ZM147.578 47L135.215 122.234L125.195 92.9375L134.395 48.8164L147.578 47ZM157.246 122.234L147.227 92.9375L162.695 15.2422L173.242 23.7383L157.246 122.234ZM178.691 122.234L168.672 92.9375L184.141 15.2422L194.688 23.7383L178.691 122.234ZM201.25 41.3164L205.117 21.9805L215.664 30.4766L213.848 41.6094L201.25 41.3164ZM212.969 47L200.605 122.234L190.586 92.9375L199.785 48.8164L212.969 47ZM222.93 88.8359L225.859 97.0391L237.52 91.1211L244.258 59.1875L241.211 53.4453L231.016 57.8398L222.93 88.8359ZM209.102 96.6289L219.355 49.168L244.141 42.0781L256.68 51.2773L248.594 100.262L222.227 109.754L209.102 96.6289ZM274.141 64.0508L265.879 109.051L254.922 92.9375L266.406 40.0273L276.953 48.5234L274.902 59.5977L298.398 43.0156L307.832 56.8438L292.891 128.445L282.402 106.414L294.121 58.3672L274.141 64.0508ZM340.645 75.5938L321.309 89.3047V96.043L334.492 98.4453L340.645 75.5938ZM348.848 101.023L353.477 101.844L348.496 102.664L347.617 107.059L330.449 113.445L332.676 105.301L310.879 108.875L310 80.1055L341.348 73.0742L344.453 61.5312L305.723 41.8438L349.141 48.2891L357.402 59.5977L348.848 101.023ZM366.836 41.3164L370.703 21.9805L381.25 30.4766L379.434 41.6094L366.836 41.3164ZM378.555 47L366.191 122.234L356.172 92.9375L365.371 48.8164L378.555 47ZM397.656 63.2891L386.699 125.867L378.203 92.9375L389.688 40.0273L400.234 48.5234L398.594 57.7812L415.82 43.0156L425.254 56.8438L410.02 70.5547L411.543 58.3672L397.656 63.2891ZM435.566 79.9883L454.902 66.2773V59.5391L441.719 57.1367L435.566 79.9883ZM434.863 82.5078L431.758 94.0508L470.488 113.738L427.07 107.293L418.809 95.9844L428.594 48.5234L465.332 46.707L466.211 75.4766L434.863 82.5078ZM530.254 43.8945L531.602 88.9531L590.957 44.8906L530.254 43.8945ZM527.441 38.8555L529.785 27.4297L530.137 38.4453L603.203 26.8438L617.852 45.8281L510.742 120.184L526.445 43.8359L499.082 43.3672L527.441 38.8555ZM619.727 88.8359L622.656 97.0391L634.316 91.1211L641.055 59.1875L638.008 53.4453L627.812 57.8398L619.727 88.8359ZM605.898 96.6289L616.152 49.168L640.938 42.0781L653.477 51.2773L645.391 100.262L619.023 109.754L605.898 96.6289ZM667.422 41.3164L671.289 21.9805L681.836 30.4766L680.02 41.6094L667.422 41.3164ZM655.234 104.891L665.957 48.8164L679.141 47L668.008 113.973L616.152 124.168L655.234 104.891ZM690.977 88.8359L693.906 97.0391L705.566 91.1211L712.305 59.1875L709.258 53.4453L699.062 57.8398L690.977 88.8359ZM677.148 96.6289L687.402 49.168L712.188 42.0781L724.727 51.2773L716.641 100.262L690.273 109.754L677.148 96.6289Z" fill="#F2E307"/>
<path d="M283.925 172.51C284.675 173.59 285.755 175.39 286.355 176.62L284.735 177.34C284.135 176.14 283.145 174.34 282.335 173.2L283.925 172.51ZM287.195 171.31C288.005 172.42 289.145 174.28 289.715 175.39L288.095 176.11C287.465 174.82 286.475 173.11 285.635 172L287.195 171.31ZM270.455 173.5C270.365 174.22 270.275 175.09 270.275 175.93C270.275 177.55 270.275 189.61 270.275 191.77C270.275 193.33 270.935 193.72 272.375 193.99C273.335 194.17 274.865 194.23 276.335 194.23C279.515 194.23 284.105 193.93 286.625 193.27V196.03C284.015 196.42 279.515 196.63 276.245 196.63C274.445 196.63 272.675 196.57 271.415 196.36C269.135 195.94 267.845 194.89 267.845 192.43C267.845 189.55 267.845 177.55 267.845 175.93C267.845 175.21 267.785 174.22 267.665 173.5H270.455ZM269.165 182.98C272.795 182.2 278.225 180.55 281.705 179.08C282.605 178.66 283.475 178.24 284.345 177.7L285.395 180.1C284.525 180.46 283.445 180.94 282.545 181.3C278.825 182.8 272.885 184.54 269.195 185.47L269.165 182.98ZM315.335 173.26C315.275 173.98 315.245 174.85 315.245 175.87C315.245 177.04 315.245 179.59 315.245 180.7C315.245 187.93 314.285 190.3 312.095 192.85C310.175 195.19 307.175 196.51 304.985 197.26L303.005 195.19C305.765 194.47 308.315 193.3 310.175 191.17C312.305 188.71 312.695 186.25 312.695 180.61C312.695 179.44 312.695 176.92 312.695 175.87C312.695 174.85 312.605 173.98 312.515 173.26H315.335ZM301.415 173.5C301.355 174.07 301.325 174.94 301.325 175.63C301.325 176.53 301.325 184.39 301.325 185.65C301.325 186.43 301.355 187.42 301.415 187.96H298.685C298.745 187.48 298.805 186.52 298.805 185.65C298.805 184.36 298.805 176.53 298.805 175.63C298.805 175.12 298.775 174.07 298.685 173.5H301.415ZM341.855 172.54C341.735 173.35 341.675 174.22 341.705 175.03C341.735 178.36 341.945 188.83 341.975 194.44C342.005 196.03 341.045 196.87 339.245 196.87C337.715 196.87 335.945 196.78 334.445 196.69L334.235 194.2C335.675 194.44 337.355 194.56 338.495 194.56C339.335 194.56 339.605 194.17 339.605 193.36C339.605 189.07 339.485 178.36 339.335 175.03C339.275 173.89 339.215 173.17 339.095 172.54H341.855ZM325.745 177.79C326.615 177.88 327.605 177.94 328.505 177.94C330.095 177.94 344.945 177.94 346.475 177.94C347.255 177.94 348.425 177.85 349.025 177.76V180.31C348.305 180.28 347.285 180.22 346.535 180.22C345.215 180.22 329.915 180.22 328.565 180.22C327.545 180.22 326.705 180.28 325.745 180.34V177.79ZM324.665 191.8C330.995 188.68 336.545 183.43 338.765 179.77H339.965L339.995 181.78C337.715 185.35 332.135 190.69 326.375 193.75L324.665 191.8ZM368.645 172C368.525 172.63 368.465 173.8 368.465 174.61C368.465 175.42 368.465 176.98 368.465 177.58H366.065C366.065 176.98 366.065 175.48 366.065 174.61C366.065 173.77 366.035 172.66 365.915 172H368.645ZM376.895 177.88C376.355 178.42 375.695 179.11 375.215 179.68C373.655 181.51 371.075 184.09 368.225 186.04C364.955 188.32 361.025 190.06 355.895 191.62L354.425 189.4C360.125 188.02 363.875 186.07 366.575 184.3C369.275 182.56 371.645 180.22 372.695 178.81C371.285 178.81 361.565 178.81 360.215 178.81C359.195 178.81 357.455 178.84 356.555 178.93V176.38C357.515 176.5 359.165 176.56 360.185 176.56C361.565 176.56 371.615 176.56 373.415 176.56C374.135 176.56 374.825 176.5 375.305 176.35L376.895 177.88ZM368.405 184.81C368.405 187.12 368.405 191.65 368.405 193.96C368.405 195.01 368.465 196.36 368.555 197.29H365.825C365.915 196.39 366.005 195.01 366.005 193.96C366.005 191.71 366.005 187.75 366.005 185.83L368.405 184.81ZM378.275 191.98C375.665 190.06 373.865 188.86 371.075 187.36L372.635 185.62C375.455 187.12 377.075 188.08 379.865 189.94L378.275 191.98ZM410.015 175.75C409.775 176.02 409.415 176.47 409.205 176.8C408.005 178.84 405.155 182.71 401.735 185.08L399.725 183.49C402.515 181.9 405.335 178.66 406.295 176.8C404.195 176.8 390.635 176.8 389.195 176.8C388.085 176.8 386.975 176.86 385.805 176.95V174.25C386.855 174.4 388.085 174.52 389.195 174.52C390.635 174.52 404.645 174.52 406.445 174.52C407.015 174.52 408.095 174.43 408.515 174.31L410.015 175.75ZM398.015 179.68C398.015 187.81 397.295 193.3 389.645 197.14L387.455 195.34C388.265 195.07 389.315 194.56 390.155 193.99C394.775 191.14 395.435 186.88 395.435 181.87C395.435 181.15 395.435 180.49 395.315 179.68H398.015ZM427.245 174.64H446.325V176.53H427.245V174.64ZM435.435 175.48L437.955 175.69C437.475 177.22 436.905 178.87 436.455 179.95L434.595 179.59C434.895 178.42 435.285 176.65 435.435 175.48ZM440.655 170.8L442.935 171.37C442.095 172.75 441.195 174.22 440.415 175.21L438.525 174.7C439.245 173.62 440.175 171.94 440.655 170.8ZM430.425 171.58L432.195 170.89C433.125 171.88 434.055 173.29 434.385 174.28L432.555 175.09C432.225 174.1 431.325 172.63 430.425 171.58ZM425.745 182.65V193.27H423.555V184.75H419.355V182.65H425.745ZM425.745 192.28C427.155 194.5 429.825 195.52 433.275 195.67C436.545 195.79 443.295 195.7 446.835 195.46C446.595 196 446.205 197.08 446.115 197.77C442.815 197.89 436.605 197.95 433.275 197.83C429.375 197.68 426.675 196.63 424.755 194.26C423.315 195.55 421.785 196.84 420.165 198.16L418.965 195.85C420.405 194.89 422.175 193.57 423.705 192.28H425.745ZM419.685 172.9L421.335 171.55C423.315 172.81 425.565 174.76 426.615 176.23L424.845 177.7C423.885 176.26 421.635 174.22 419.685 172.9ZM431.745 184.78V187.27H441.735V184.78H431.745ZM431.745 188.92V191.44H441.735V188.92H431.745ZM431.745 180.64V183.13H441.735V180.64H431.745ZM429.615 178.9H443.955V193.18H429.615V178.9ZM457.815 183.13H476.715V185.11H457.815V183.13ZM461.205 187.21H474.285V189.04H461.205V187.21ZM462.675 183.88L464.625 184.39C463.095 187.72 460.365 190.66 457.575 192.52C457.275 192.13 456.495 191.44 456.045 191.11C458.805 189.46 461.295 186.85 462.675 183.88ZM473.865 187.21H475.995C475.995 187.21 475.965 187.78 475.905 188.11C475.455 194.32 474.975 196.69 474.165 197.56C473.685 198.07 473.145 198.25 472.425 198.31C471.765 198.34 470.625 198.37 469.425 198.31C469.425 197.74 469.215 196.93 468.915 196.45C470.055 196.54 471.045 196.57 471.465 196.57C471.915 196.57 472.155 196.54 472.395 196.24C472.965 195.67 473.445 193.42 473.865 187.54V187.21ZM462.825 177.37V179.77H472.485V177.37H462.825ZM462.825 173.38V175.75H472.485V173.38H462.825ZM460.785 171.7H474.585V181.45H460.785V171.7ZM449.475 177.31H458.385V179.47H449.475V177.31ZM452.985 171.04H455.115V189.49H452.985V171.04ZM448.905 190.69C451.215 189.73 454.755 188.14 458.175 186.55L458.655 188.53C455.595 190.09 452.325 191.71 449.775 192.94L448.905 190.69ZM470.025 187.54L471.615 188.38C470.475 192.19 467.985 196.45 465.255 198.52C464.865 198.07 464.175 197.56 463.605 197.23C466.425 195.34 468.945 191.26 470.025 187.54ZM465.345 187.63L466.875 188.53C465.345 191.8 462.195 195.37 459.285 197.23C458.925 196.75 458.295 196.18 457.755 195.85C460.725 194.23 463.875 190.78 465.345 187.63Z" fill="#F20707"/>
<line x1="513" y1="159" x2="233" y2="159" stroke="#980BBF" stroke-width="2"/>
</svg>
